<?xml version="1.0" standalone="no"?>
<!DOCTYPE svg PUBLIC "-//W3C//DTD SVG 1.1//EN" "http://www.w3.org/Graphics/SVG/1.1/DTD/svg11.dtd" >
<svg xmlns="http://www.w3.org/2000/svg" xmlns:xlink="http://www.w3.org/1999/xlink" version="1.1">
<metadata>
Created by FontForge 20161003 at Mon Feb 19 20:58:31 2018
 By www-data
(c) 2009 Made in Fontfabric (c) Sofia, Bulgaria. All Rights Reserved!
</metadata>
<defs>
<font id="VAL" horiz-adv-x="752" >
  <font-face 
    font-family="VAL"
    font-weight="900"
    font-stretch="normal"
    units-per-em="1000"
    panose-1="2 0 0 0 0 0 0 0 0 0"
    ascent="750"
    descent="-250"
    x-height="710"
    cap-height="708"
    bbox="-83 -278.388 1283 980.903"
    underline-thickness="50"
    underline-position="-150"
    unicode-range="U+0020-FB02"
  />
<missing-glyph horiz-adv-x="259" 
 />
    <glyph glyph-name=".notdef" horiz-adv-x="259" 
 />
    <glyph glyph-name=".null" horiz-adv-x="0" 
 />
    <glyph glyph-name="nonmarkingreturn" horiz-adv-x="333" 
 />
    <glyph glyph-name="space" unicode=" " horiz-adv-x="259" 
 />
    <glyph glyph-name="exclam" unicode="!" horiz-adv-x="341" 
d="M286 241q26 -37 26 -86q0 -65 -45.5 -110.5t-110.5 -45.5t-110.5 45.5t-45.5 110.5q0 50 29.5 90.5t76.5 57.5q4 0 1 6q0 3 -5 3q-50 -8 -88 -47q-14 27 -14 64v231q0 65 45.5 110.5t110.5 45.5t111.5 -45.5t46.5 -110.5v-231q0 -45 -28 -88z" />
    <glyph glyph-name="quotedbl" unicode="&#x22;" horiz-adv-x="473" 
d="M34 493v119q0 38 28 66t68 28q33 0 58.5 -20t33.5 -50q2 -2 5 -2t3 2q8 30 34.5 50t59.5 20q38 0 66 -28t28 -66v-119q0 -40 -28 -68.5t-66 -28.5q-33 0 -59.5 19.5t-34.5 49.5q0 2 -1.5 3t-3.5 0t-3 -3q-8 -30 -33.5 -49.5t-58.5 -19.5q-40 0 -68 28.5t-28 68.5z" />
    <glyph glyph-name="numbersign" unicode="#" horiz-adv-x="770" 
d="M80 106q-43 13 -64 51.5t-17 79.5t36.5 74.5t85.5 37.5q1 2 2 5q-63 23 -76.5 75t21.5 97.5t95 53.5q11 46 47.5 72t75.5 27t73.5 -25t43.5 -74q0 -2 2.5 -2t2.5 2q14 47 52.5 72.5t79.5 24t76 -28t41 -72.5q46 -14 67 -53t15.5 -79.5t-38.5 -73.5t-85 -37q-1 -2 -2 -5
q42 -20 60.5 -58t12 -74t-36.5 -64t-75 -31q-16 -61 -68.5 -86t-104.5 -1.5t-67 87.5q0 1 -2.5 1t-2.5 -1q-15 -51 -54 -77t-79.5 -24t-75 30.5t-41.5 75.5z" />
    <glyph glyph-name="dollar" unicode="$" horiz-adv-x="698" 
d="M229 11h-76q-63 0 -104.5 32t-53.5 77.5t0 92.5q21 70 90.5 100t133.5 -2q6 -2 8 2.5t-4 8.5q-43 24 -97 20.5t-94 -33.5q-27 122 29 221.5t168 134.5q0 42 30 71t72 29q38 0 67 -24.5t34 -60.5h78q87 0 129.5 -58.5t28.5 -128.5q-14 -76 -85.5 -112.5t-140.5 -0.5
q-7 3 -7 -2q0 -4 5 -7q42 -27 93.5 -23.5t95.5 32.5q29 -135 -27.5 -226t-167.5 -127q0 -43 -30 -73t-73 -30q-38 0 -66.5 24.5t-35.5 62.5z" />
    <glyph glyph-name="uni0025" unicode="%" horiz-adv-x="630" 
d="M33 225l99 124h2q69 0 114 48q2 5 -3 7q-2 0 -3 -1q-42 -34 -95 -34q-64 0 -109.5 45.5t-45.5 110.5q0 63 45.5 107t109.5 44q54 0 96 -34.5t53 -87.5l52 65q40 52 95.5 61.5t105.5 -32.5q42 -36 45 -92t-32 -100l-96 -121h-7q-81 0 -127 -64q-1 -4 2 -5q2 -1 3 2
q49 44 111 44q64 0 108 -45t44 -109t-44 -108.5t-108 -44.5q-55 0 -97.5 33.5t-54.5 85.5q-7 -10 -59 -75q-35 -43 -92 -46.5t-99 34.5q-40 36 -44 90.5t31 97.5z" />
    <glyph glyph-name="ampersand" unicode="&#x26;" horiz-adv-x="664" 
d="M622 262v-11q-29 35 -71 47t-85 0q-2 0 -1 -2t4 -2q65 5 118 -39t53 -114q0 -62 -45 -107t-108 -45q-44 0 -80 23t-57 61q-2 3 -5 0q-1 -1 0 -3q5 -26 37 -66q-32 -7 -74 -7q-127 0 -218 77.5t-91 187.5q0 69 36 126q25 -46 87 -90q3 -2 4 2q0 2 -1 3q-82 71 -82 171
q0 99 78 169.5t187 70.5q113 0 191 -70.5t78 -169.5q0 -38 -12 -71q57 -57 57 -141zM308 517q-10 0 -17.5 -7.5t-7.5 -19.5t8 -20.5t17 -8.5q13 0 21.5 8.5t8.5 20.5t-8.5 19.5t-21.5 7.5z" />
    <glyph glyph-name="quotesingle" unicode="'" horiz-adv-x="269" 
d="M15 497v119q0 39 28.5 67t69.5 28q38 0 66 -28t28 -67v-119q0 -40 -27.5 -68t-66.5 -28q-41 0 -69.5 28t-28.5 68z" />
    <glyph glyph-name="parenleft" unicode="(" horiz-adv-x="344" 
d="M186 809q29 21 59 26t53.5 -4t40.5 -28.5t23 -44t-3.5 -54t-35.5 -55.5q-61 -60 -84.5 -182.5t0 -245t86.5 -180.5q27 -26 37.5 -55.5t5.5 -54.5t-22 -45t-40.5 -30t-53.5 -5t-59 26q-88 66 -137 196.5t-51 269t45 269.5t136 197z" />
    <glyph glyph-name="parenright" unicode=")" horiz-adv-x="327" 
d="M110 -159q-29 -21 -59 -26t-53.5 4t-40.5 28.5t-23 44t3.5 54t35.5 55.5q61 59 84.5 202t0 286t-86.5 201q-27 26 -37.5 55.5t-5.5 54.5t22 45t40.5 30t53.5 5t59 -26q88 -66 137 -209.5t51 -297t-45 -297t-136 -209.5z" />
    <glyph glyph-name="asterisk" unicode="*" horiz-adv-x="460" 
d="M219 290q-47 0 -65.5 29t4.5 70q1 6 -3 7q-2 -1 -4 -3q-25 -41 -62.5 -37.5t-57.5 43.5q-19 41 -1.5 68t62.5 27q5 0 4 4q-1 3 -4 3q-48 0 -65 31.5t9 72.5q28 43 59.5 41t55.5 -44q2 -3 5 -1t2 4q-24 41 -6.5 72t63.5 31q48 -1 65 -32t-6 -71q-3 -3 1 -4q3 -1 6 1
q22 40 55 40.5t60 -37.5q25 -37 7 -70.5t-65 -33.5q-5 0 -4 -4q1 -3 4 -3q45 0 62.5 -25.5t0.5 -67.5t-56 -46t-64 38q-4 4 -6.5 2.5t-0.5 -6.5q23 -41 6.5 -71t-61.5 -28z" />
    <glyph glyph-name="plus" unicode="+" horiz-adv-x="572" 
d="M123 455h96q2 0 2 4t-2 4l-51 14v24q0 43 31.5 74.5t75.5 31.5t75.5 -31t31.5 -75v-46h45q44 0 76.5 -31.5t32.5 -75.5t-32.5 -75.5t-76.5 -31.5h-99q-2 0 -2.5 -2t0 -4t2.5 -3l54 -11v-25q0 -44 -31.5 -76.5t-75.5 -32.5q-43 0 -75 32.5t-32 76.5v45h-45
q-44 0 -75.5 31.5t-31.5 75.5t31.5 75.5t75.5 31.5z" />
    <glyph glyph-name="comma" unicode="," horiz-adv-x="239" 
d="M109 211q59 0 92 -50t6 -103l-51 -102q-20 -35 -56.5 -38t-59.5 25t-7 69l16 50q1 4 -3 5l-2 -2l-21 -30q-23 26 -23 68q0 45 32 76.5t77 31.5z" />
    <glyph glyph-name="hyphen" unicode="-" horiz-adv-x="415" 
d="M132 419h133q46 0 77.5 -31t31.5 -76q0 -44 -31.5 -75t-77.5 -31h-133q-46 0 -77 31t-31 75q0 45 31 76t77 31z" />
    <glyph glyph-name="period" unicode="." horiz-adv-x="232" 
d="M102 211q46 0 78.5 -31.5t32.5 -76.5t-32.5 -77.5t-78.5 -32.5q-44 0 -76 32.5t-32 77.5t31.5 76.5t76.5 31.5z" />
    <glyph glyph-name="slash" unicode="/" horiz-adv-x="426" 
d="M-6 61q10 36 90.5 312t97.5 334q11 44 51 65.5t83 8.5q43 -12 65.5 -51t10.5 -83q-29 -105 -89.5 -310t-98.5 -337q-14 -44 -53.5 -65.5t-82.5 -8.5q-44 12 -65.5 51.5t-8.5 83.5z" />
    <glyph glyph-name="zero" unicode="0" 
d="M360 720q151 0 258 -107t107 -257t-107 -256t-258 -106q-149 0 -256 106t-107 256t107 257t256 107zM360 394q-14 0 -25 -10.5t-11 -27.5q0 -16 11 -27.5t25 -11.5q16 0 27.5 11.5t11.5 27.5q0 17 -11.5 27.5t-27.5 10.5z" />
    <glyph glyph-name="one" unicode="1" horiz-adv-x="499" 
d="M308 710q67 0 114 -47.5t46 -115.5v-393q0 -66 -46.5 -112.5t-113.5 -46.5t-113.5 46.5t-46.5 112.5l3 236q-43 0 -76.5 17.5t-51 46t-25.5 62.5t0 68t25.5 62.5t51 46t76.5 17.5h157z" />
    <glyph glyph-name="two" unicode="2" horiz-adv-x="650" 
d="M469 0h-312q-66 0 -113 47.5t-47 112.5q0 64 53 122l160 159q4 4 1 8t-8 2l-82 -58q-54 12 -88.5 49.5t-39.5 82t8 87.5t54.5 72t98.5 29h246q136 0 198 -96q52 -80 27 -179q-25 -101 -115 -151q-61 -33 -138 -33h-5q48 -14 102 -4.5t96 37.5q63 -45 63 -127
q0 -56 -48 -108t-111 -52z" />
    <glyph glyph-name="three" unicode="3" horiz-adv-x="642" 
d="M159 -1q-62 0 -110.5 54t-48.5 106q0 53 15 76q48 -55 139 -51q6 2 6 7.5t-6 5.5q-70 9 -111 50q-32 35 -39.5 85.5t13.5 94.5q52 -59 150 -45q6 0 5 6t-5 6q-98 5 -142 71q-23 37 -23.5 81t18 80t55.5 60.5t84 24.5h231q82 0 142.5 -59.5t60.5 -142.5q0 -72 -45 -127.5
t-112 -70.5q-6 -2 -6 -7.5t6 -5.5q83 5 139 66q30 -32 40.5 -57.5t10.5 -86.5q0 -80 -70.5 -150.5t-150.5 -70.5h-246z" />
    <glyph glyph-name="four" unicode="4" horiz-adv-x="692" 
d="M323 202q-151 0 -241 91.5t-86 258.5q1 45 18.5 79.5t44 52.5t59 26t64.5 -0.5t58.5 -26.5t43 -52t16.5 -77q0 -16 11.5 -22.5t23 -0.5t11.5 21q0 66 46.5 112.5t112.5 46.5q64 0 110.5 -47t46.5 -112v-8v-3v-382q0 -67 -46 -113.5t-111 -46.5q-66 0 -112.5 46.5
t-46.5 113.5v15q47 11 91 35q3 1 3.5 4.5t-2.5 5.5t-6 1q-54 -18 -109 -18z" />
    <glyph glyph-name="five" unicode="5" horiz-adv-x="656" 
d="M471 710q62 0 110 -51.5t48 -106.5q0 -82 -61 -126q-44 28 -96.5 37t-103.5 -5h7q139 0 212 -98q60 -81 45 -181q-16 -101 -101 -149q-55 -31 -129 -31h-244q-57 0 -98.5 28.5t-55 71.5t-9 87.5t39 81.5t88.5 49l82 -56q3 -1 6.5 0t3.5 3.5t-3 5.5l-158 161
q-54 54 -54 121q0 65 46.5 111.5t111.5 46.5h313z" />
    <glyph glyph-name="six" unicode="6" horiz-adv-x="665" 
d="M338 710h141q64 0 111 -51.5t47 -106.5q0 -84 -62 -126q-63 44 -143 39q-3 0 -4.5 -2.5t0 -5.5t4.5 -4q95 -12 153.5 -69t56.5 -156q0 -54 -25.5 -105t-80.5 -87.5t-126 -36.5h-67q-75 0 -137.5 24.5t-103 65.5t-68.5 94.5t-34.5 112.5t-0.5 117.5t34 112t68 94.5
t101.5 65.5t135.5 24.5z" />
    <glyph glyph-name="seven" unicode="7" horiz-adv-x="624" 
d="M147 18q-58 34 -75.5 97t15.5 121l89 155h-20q-66 0 -113 46.5t-47 111.5q0 67 47 114t113 47h294q66 0 112 -47t46 -114q0 -44 -34 -98l-213 -376q-32 -56 -95 -73t-119 16z" />
    <glyph glyph-name="eight" unicode="8" horiz-adv-x="656" 
d="M444 325q-7 0 -4 -7q2 -5 7 -5q79 3 138 67q50 -73 50 -144q0 -60 -27.5 -109t-72.5 -78.5t-102.5 -45.5t-117.5 -16t-117.5 16t-102.5 46t-72.5 78.5t-27.5 108.5q0 80 49 144q59 -64 139 -67q7 0 6 7q0 5 -4 5q-68 15 -113 69.5t-45 125.5q0 50 24.5 90.5t65 65.5
t92.5 38.5t105.5 13.5t105.5 -13.5t92.5 -38.5t65 -65.5t24.5 -90.5q0 -71 -45 -125.5t-113 -69.5z" />
    <glyph glyph-name="nine" unicode="9" horiz-adv-x="669" 
d="M303 -2h-141q-64 0 -111 51.5t-47 106.5q0 84 62 126q63 -44 143 -39q3 0 4.5 2.5t0 5.5t-4.5 4q-95 12 -153.5 69t-56.5 156q0 54 25.5 105t80.5 87.5t126 36.5h67q75 0 137.5 -24.5t103 -65.5t68.5 -94.5t34.5 -112.5t0.5 -117.5t-34 -112t-68 -94.5t-101.5 -65.5
t-135.5 -24.5z" />
    <glyph glyph-name="colon" unicode=":" horiz-adv-x="290" 
d="M136 215q44 0 77.5 -32.5t33.5 -75.5q0 -46 -33 -77t-78 -31q-47 0 -79 31t-32 77q0 44 32.5 76t78.5 32zM136 550q44 0 77.5 -32.5t33.5 -75.5q0 -46 -33 -77t-78 -31q-47 0 -79 31t-32 77q0 44 32.5 76t78.5 32z" />
    <glyph glyph-name="semicolon" unicode=";" horiz-adv-x="290" 
d="M136 550q44 0 77.5 -32.5t33.5 -75.5q0 -46 -33 -77t-78 -31q-47 0 -79 31t-32 77q0 44 32.5 76t78.5 32zM45 -23q17 35 30 69q0 5 -4 1l-26 -29q-21 29 -21 66q0 47 32.5 79.5t77.5 32.5q72 0 103 -62.5t-2 -131.5l-39 -91q-14 -31 -45.5 -43t-63.5 0q-30 15 -42.5 46
t0.5 63z" />
    <glyph glyph-name="less" unicode="&#x3c;" horiz-adv-x="372" 
d="M21 394l145 146q31 30 72.5 30t69.5 -30q28 -29 28 -70t-28 -70l-65 -62l-43 25q-2 2 -4 -1q-1 -2 0 -4q16 -16 34.5 -35t42 -42t35.5 -35q28 -28 28 -69t-28 -70t-69.5 -29t-72.5 29l-145 146q-29 28 -29 70.5t29 70.5z" />
    <glyph glyph-name="equal" unicode="=" horiz-adv-x="544" 
d="M97 550h302q43 0 73.5 -30.5t30.5 -72.5q0 -35 -21.5 -63.5t-54.5 -35.5q-7 -4 -4 -6q2 -1 4 -1q33 -10 54.5 -37t21.5 -62q0 -44 -30.5 -73.5t-73.5 -29.5h-302q-43 0 -72 29.5t-29 73.5q0 35 21.5 62t54.5 37q7 0 4 4l-4 3q-33 8 -54.5 35.5t-21.5 63.5q0 42 29.5 72.5
t71.5 30.5z" />
    <glyph glyph-name="greater" unicode="&#x3e;" horiz-adv-x="386" 
d="M325 394q29 -28 29 -70.5t-29 -70.5l-145 -146q-31 -29 -72.5 -29t-69.5 29t-28 70t28 69q12 12 35.5 35t42 42t34.5 35q2 3 -1 5q-2 1 -3 0l-43 -25l-65 62q-28 29 -28 70t28 70q28 30 69.5 30t72.5 -30z" />
    <glyph glyph-name="question" unicode="?" horiz-adv-x="585" 
d="M170 284q2 2 2 6q-4 4 -7 2q-41 -20 -62 -55q-6 49 13.5 94.5t63.5 70.5h-27q-43 0 -77 17t-51.5 43.5t-25.5 59t0 65.5t25.5 59.5t51.5 43.5t77 17h164q76 0 133 -30.5t84.5 -77t31.5 -102t-17 -105t-70.5 -86.5t-118.5 -46q-4 -4 -4 -6q0 -4 4 -4q30 -2 54 4v-109
q-4 -62 -49 -104t-107 -42q-65 0 -110 45.5t-45 110.5q0 83 67 129z" />
    <glyph glyph-name="at" unicode="@" horiz-adv-x="879" 
d="M428 709q175 0 297 -122t122 -297q0 -109 -50.5 -186.5t-153.5 -93.5q-73 -11 -131.5 14t-76.5 92q0 4 -5 3.5t-5 -3.5q5 -62 52 -103q-16 -3 -49 -3q-116 0 -199.5 82t-83.5 198t83.5 199.5t199.5 83.5q118 0 200 -83.5t82 -201.5v-83q0 -14 9 -14t11 11q14 45 14 88
q0 130 -93 222.5t-223 92.5q-129 0 -221.5 -92.5t-92.5 -222.5q0 -98 54 -177.5t142.5 -116.5t182.5 -15q39 9 58 -22q17 -31 -5 -57q-15 -17 -44 -22q-92 -18 -182.5 7t-158.5 80.5t-110 141t-42 181.5q0 175 122.5 297t296.5 122z" />
    <glyph glyph-name="A" unicode="A" horiz-adv-x="728" 
d="M437 220l-173 -169q-46 -47 -112 -47t-113 47q-46 46 -46 110.5t46 110.5l380 385q37 43 93.5 52.5t105.5 -19.5q37 -19 58.5 -55.5t21.5 -81.5v-395q0 -64 -48.5 -110.5t-109.5 -46.5q-60 0 -100.5 32.5t-53.5 84.5l61 94q2 6 -2 9.5t-8 -1.5z" />
    <glyph glyph-name="B" unicode="B" horiz-adv-x="656" 
d="M450 313q-5 -1 -5 -6.5t5 -5.5q84 3 140 64q21 -23 29 -34.5t15.5 -39.5t7.5 -71q0 -79 -71 -149t-151 -70h-264q-64 0 -110.5 48t-46.5 113v391q0 67 45.5 112.5t111.5 45.5h251q82 0 141.5 -58.5t59.5 -143.5q0 -70 -45 -125t-113 -71z" />
    <glyph glyph-name="C" unicode="C" horiz-adv-x="693" 
d="M354 711h140q69 0 119 -51t50 -119q0 -70 -49.5 -119.5t-119.5 -49.5q-28 0 -67 11.5t-52 11.5q-16 0 -27.5 -11.5t-11.5 -27.5q0 -15 11.5 -25.5t27.5 -10.5q13 0 52 11.5t67 11.5q69 0 119 -51.5t50 -122.5q0 -68 -50 -118.5t-119 -50.5h-145q-143 0 -246 106.5
t-103 249.5q0 148 103.5 250.5t250.5 104.5z" />
    <glyph glyph-name="D" unicode="D" horiz-adv-x="693" 
d="M306 1h-144q-68 0 -115 45.5t-47 110.5v395q0 66 46 113t113 47h154q146 0 248 -104t102 -251q0 -148 -104.5 -252t-252.5 -104zM324 320q17 0 28 10.5t11 25.5q0 16 -11 27.5t-28 11.5h-21v-75h21z" />
    <glyph glyph-name="E" unicode="E" horiz-adv-x="606" 
d="M0 550q0 68 45.5 114.5t115.5 46.5h261q46 0 82.5 -24.5t55 -60t18 -79.5t-24.5 -81q-42 -69 -139 -72q-5 0 -5 -5.5t5 -7.5q93 -12 149 47q21 -44 13.5 -95.5t-40.5 -84.5q-37 -41 -112 -50q-5 0 -5 -6t5 -6q92 -9 141 49q15 -25 15 -77q0 -56 -41 -107t-117 -51h-263
q-66 0 -112.5 46.5t-46.5 111.5v392z" />
    <glyph glyph-name="F" unicode="F" horiz-adv-x="592" 
d="M-1 552q0 77 40 118t116 41h263q65 0 111.5 -47t46.5 -112q0 -52 -32 -95t-82 -58q-23 -5 -49 -5q-6 -2 -6 -7.5t6 -5.5q53 -8 102 10q12 -29 12 -62q0 -65 -47 -111.5t-112 -46.5h-52v-17q0 -64 -47 -111t-111 -47q-65 0 -112 46.5t-47 111.5v398z" />
    <glyph glyph-name="G" unicode="G" horiz-adv-x="687" 
d="M-2 358q0 148 106.5 250t256.5 102h139q66 0 113 -45t47 -108q0 -56 -30.5 -96.5t-80.5 -55.5q-6 0 -6 -5t6 -8q47 -14 77.5 -56t30.5 -95v-84q0 -60 -48.5 -108t-108.5 -48h-142q-149 0 -254.5 104t-105.5 253zM342 283q0 -5 5.5 -6.5t8.5 4.5q28 76 93 104q6 1 4.5 6.5
t-6.5 5.5h-65q-19 0 -29.5 -11.5t-10.5 -30.5v-72z" />
    <glyph glyph-name="H" unicode="H" horiz-adv-x="713" 
d="M523 -1q-67 0 -114 46.5t-47 112.5v34q0 9 -6.5 15.5t-15.5 6.5t-15.5 -6.5t-6.5 -15.5v-34q0 -67 -46 -113t-113 -46q-66 0 -112.5 46t-46.5 113v394q0 66 46.5 112t112.5 46q67 0 113 -45.5t46 -112.5v-36q0 -8 6.5 -14.5t15.5 -6.5t15.5 6.5t6.5 14.5v36
q0 65 47 111.5t114 46.5q65 0 112 -46.5t47 -111.5v-394q0 -66 -47 -112.5t-112 -46.5z" />
    <glyph glyph-name="I" unicode="I" horiz-adv-x="351" 
d="M158 1q-66 0 -112 47t-46 113v390q0 65 46 111t112 46q68 0 114.5 -45.5t46.5 -111.5v-390q0 -66 -46.5 -113t-114.5 -47z" />
    <glyph glyph-name="J" unicode="J" horiz-adv-x="665" 
d="M474 711q67 0 114 -47t47 -113q0 -224 -1 -252q0 -140 -90.5 -220t-227.5 -86q-67 3 -124 22t-102.5 54.5t-70 94t-21.5 133.5q1 66 46.5 112.5t111.5 50.5q63 2 103.5 -33t48.5 -92q0 -3 4 -2.5t4 2.5v216q0 66 46 113t112 47z" />
    <glyph glyph-name="K" unicode="K" horiz-adv-x="735" 
d="M268 498l167 167q47 47 112.5 47t111.5 -47q47 -47 47 -112.5t-47 -112.5l-79 -81l89 -89q47 -47 47 -112.5t-47 -112.5q-46 -47 -111.5 -47t-112.5 47l-89 89l-73 -76q-53 -58 -126 -58q-65 0 -111 46t-46 111v396q0 67 46 113t111 46q58 0 101.5 -34.5t57.5 -89.5
l-58 -83q-2 -4 2 -7.5t8 0.5z" />
    <glyph glyph-name="L" unicode="L" horiz-adv-x="529" 
d="M162 0q-70 0 -117 46.5t-45 115.5v391q0 65 46.5 112t112.5 47q67 0 113.5 -47t46.5 -112l-2 -233h35q43 0 76.5 -17.5t51 -46t25.5 -62.5t0 -68t-25.5 -62.5t-51 -46t-76.5 -17.5h-190z" />
    <glyph glyph-name="M" unicode="M" horiz-adv-x="1129" 
d="M832 218l-172 -172q-42 -43 -99.5 -46.5t-104 29.5t-61.5 89l57 91q3 3 2 6t-4.5 3.5t-6.5 -0.5l-169 -172q-47 -48 -113.5 -48t-112.5 48q-49 47 -49 114.5t49 114.5l389 391q47 47 113 47t113 -47t47 -115l107 109q52 54 121 54q66 0 113.5 -47.5t47.5 -112.5v-395
q0 -67 -47 -114t-114 -47q-55 0 -99 34t-55 86l59 91q2 4 -2 7.5t-9 1.5z" />
    <glyph glyph-name="N" unicode="N" horiz-adv-x="740" 
d="M710 158q0 -73 -49 -116.5t-113.5 -41.5t-108.5 47q-128 124 -172 170q-3 6 -8 -2q-3 -4 -1 -8l57 -88q-11 -52 -55 -86.5t-100 -34.5q-66 0 -113 46.5t-47 113.5v394q0 65 47 112.5t113 47.5t122 -56l163 -160q2 -3 4.5 -2.5t4 3t0.5 5.5l-59 86q11 52 55 88t99 36
q67 0 114 -47t47 -113v-394z" />
    <glyph glyph-name="O" unicode="O" 
d="M360 720q151 0 258 -107t107 -257t-107 -256t-258 -106q-149 0 -256 106t-107 256t107 257t256 107zM360 394q-14 0 -25 -10.5t-11 -27.5q0 -16 11 -27.5t25 -11.5q16 0 27.5 11.5t11.5 27.5q0 17 -11.5 27.5t-27.5 10.5z" />
    <glyph glyph-name="P" unicode="P" horiz-adv-x="665" 
d="M166 -7q-70 0 -118 47.5t-48 115.5v392q0 67 48.5 114.5t117.5 47.5h197q119 0 201.5 -83t82.5 -202q0 -120 -86 -204t-206 -80l-18 98q-2 6 -6 5t-4 -7v-81q0 -66 -47.5 -114.5t-113.5 -48.5zM342 462q-10 0 -15 -2v-69q8 -5 15 -5q16 0 27.5 11.5t11.5 27.5t-11.5 26.5
t-27.5 10.5z" />
    <glyph glyph-name="Q" unicode="Q" horiz-adv-x="744" 
d="M356 715q149 0 255 -105.5t106 -254.5q0 -41 -8 -76l-81 50h-3l61 -60q30 -36 37.5 -79t-5 -79.5t-40 -65t-62.5 -41.5t-76.5 -3.5t-78.5 44.5l-50 49q-2 3 -5 0v-5l50 -78q-38 -13 -100 -13q-148 0 -253.5 104t-105.5 253q0 148 105.5 254t253.5 106zM356 394
q-16 0 -27.5 -12t-11.5 -27q0 -16 11.5 -26.5t27.5 -10.5q17 0 28.5 10.5t11.5 26.5q0 15 -12 27t-28 12z" />
    <glyph glyph-name="R" unicode="R" horiz-adv-x="699" 
d="M158 -2q-65 0 -112 47.5t-47 114.5v392q0 66 47.5 112t114.5 46h224q118 0 201 -83t83 -201q0 -73 -32.5 -135t-89.5 -102q-2 -2 -2 -4.5t2.5 -4.5t5.5 -1q54 25 90 66q34 -48 28.5 -105t-48.5 -100q-45 -45 -110.5 -46t-108.5 51l-86 102q-4 -63 -49.5 -106t-110.5 -43z
M336 458q-10 0 -18 -5v-68q5 -3 18 -3q16 0 26 10.5t10 26.5t-10.5 27.5t-25.5 11.5z" />
    <glyph glyph-name="S" unicode="S" horiz-adv-x="665" 
d="M635 553q0 -84 -71 -120q-47 27 -112 32q-6 0 -7.5 -5.5t4.5 -7.5q64 -15 108.5 -55t62 -90t11.5 -104.5t-35 -99.5t-86.5 -74.5t-133.5 -29.5h-219q-61 0 -110 52t-49 108q0 80 63 126q59 -39 138 -39q6 0 7 5.5t-5 7.5q-36 3 -83 26q-48 25 -77.5 67.5t-38.5 89.5
t3.5 95.5t42.5 87t84.5 63t123.5 23.5h217q67 0 114.5 -46t47.5 -112z" />
    <glyph glyph-name="T" unicode="T" horiz-adv-x="646" 
d="M155 710h315q67 0 114 -47.5t47 -113.5q0 -64 -46 -111t-112 -47l1 -233q0 -67 -47.5 -114.5t-113.5 -47.5q-65 0 -111.5 47.5t-46.5 114.5v233q-66 0 -112 47t-46 111q0 66 46 113.5t112 47.5z" />
    <glyph glyph-name="U" unicode="U" horiz-adv-x="710" 
d="M341 -7q-140 0 -240.5 100.5t-100.5 240.5v215q0 66 47 113.5t114 47.5q66 0 112 -47.5t46 -113.5v-196q0 -9 6.5 -17t15.5 -8t15.5 8t6.5 17v196q0 66 47 113.5t114 47.5q64 0 111 -47.5t47 -113.5v-215q0 -140 -101 -240.5t-240 -100.5z" />
    <glyph glyph-name="V" unicode="V" horiz-adv-x="726" 
d="M262 491l174 173q45 47 111 47t113 -47t47 -113t-47 -111l-382 -385q-36 -43 -92.5 -53t-106.5 18q-79 49 -79 139v395q0 64 48.5 111t109.5 47q60 0 100 -32t55 -85l-60 -95q-3 -3 -2 -6t4.5 -4t6.5 1z" />
    <glyph glyph-name="W" unicode="W" horiz-adv-x="1113" 
d="M265 494l170 170q32 32 75 42t81 -1t68.5 -41t41.5 -72l-57 -89q-3 -3 -2 -6t4.5 -3.5t6.5 0.5l171 170q45 47 111 47t113 -47q45 -45 45 -112.5t-45 -114.5l-388 -388q-48 -48 -114 -48t-111 48q-47 47 -47 113l-107 -107q-52 -57 -120 -57q-67 0 -114 47.5t-47 113.5
v395q0 66 47 113.5t114 47.5q53 0 96 -35.5t55 -87.5l-57 -89q-2 -4 1.5 -7.5t8.5 -1.5z" />
    <glyph glyph-name="X" unicode="X" horiz-adv-x="717" 
d="M345 586l80 80q45 47 108 47t108 -47q46 -46 46 -112t-46 -113l-76 -80l85 -90q45 -48 45 -114t-45 -111q-46 -48 -109 -48t-108 48l-88 90l-88 -90q-45 -48 -108 -48t-109 48q-45 45 -45 111t45 114l85 90l-76 80q-46 47 -46 113t46 112q45 47 109 47t107 -47z" />
    <glyph glyph-name="Y" unicode="Y" horiz-adv-x="699" 
d="M336 586l77 80q46 47 110.5 47t109.5 -47q45 -46 45 -112t-45 -113l-137 -140v-140q0 -66 -47 -112.5t-113 -46.5q-65 0 -112 46.5t-47 112.5v140l-137 140q-45 47 -45 113t45 112q45 47 108.5 47t108.5 -47z" />
    <glyph glyph-name="Z" unicode="Z" horiz-adv-x="675" 
d="M484 711q74 0 118 -49t42 -114.5t-48 -111.5l-170 -170q-1 -2 0 -5.5t3 -4.5t5 2l88 58q56 -13 90 -54.5t34 -102.5t-47.5 -110t-111.5 -49h-332q-66 0 -114 46.5t-48 112.5q0 69 57 121l159 162q4 4 0.5 8.5t-8.5 2.5l-82 -58q-54 13 -89 56.5t-35 100.5q0 65 47 112
t113 47h329z" />
    <glyph glyph-name="bracketleft" unicode="[" horiz-adv-x="296" 
d="M220 644v-589q47 -3 76 -35t29 -75q0 -47 -32 -78.5t-84 -31.5h-99q-47 0 -78.5 32t-31.5 83v801q0 52 31.5 84t78.5 32h99q51 0 83.5 -32.5t32.5 -79.5q0 -43 -28.5 -75t-76.5 -36z" />
    <glyph glyph-name="backslash" unicode="\" horiz-adv-x="426" 
d="M402 61q13 -44 -8.5 -83.5t-65.5 -51.5q-43 -13 -82.5 8.5t-53.5 65.5q-38 132 -98.5 337t-89.5 310q-12 44 10.5 83t65.5 51q43 13 83 -8.5t51 -65.5q17 -58 97.5 -334t90.5 -312z" />
    <glyph glyph-name="bracketright" unicode="]" horiz-adv-x="279" 
d="M22 58v589q-47 3 -76 35t-29 75q0 47 32 78.5t84 31.5h99q47 0 78.5 -32t31.5 -83v-801q0 -52 -31.5 -84t-78.5 -32h-99q-51 0 -83.5 32.5t-32.5 79.5q0 43 28.5 75t76.5 36z" />
    <glyph glyph-name="asciicircum" unicode="^" horiz-adv-x="577" 
d="M330 679l139 -139q27 -27 27 -66t-27 -68q-27 -26 -66 -26t-66 26l-61 61l25 41q2 4 -1 6l-3 -1l-107 -107q-28 -26 -66.5 -26t-65.5 26q-28 29 -28 68t28 66l139 139q28 26 67.5 26t65.5 -26z" />
    <glyph glyph-name="underscore" unicode="_" horiz-adv-x="589" 
d="M105 0h356q46 0 77.5 -31t31.5 -76q0 -44 -31.5 -75t-77.5 -31h-356q-46 0 -77 31t-31 75q0 45 31 76t77 31z" />
    <glyph glyph-name="grave" unicode="`" horiz-adv-x="416" 
d="M136 742l161 -29q42 -7 65.5 -40.5t16.5 -74.5q-8 -40 -41.5 -62.5t-74.5 -15.5l-161 29q-41 7 -64.5 40.5t-16.5 73.5q8 41 41 63.5t74 15.5z" />
    <glyph glyph-name="a" unicode="a" horiz-adv-x="728" 
d="M260 220q-4 5 -8 1.5t-2 -9.5l61 -94q-13 -52 -53.5 -84.5t-100.5 -32.5q-61 0 -109.5 46.5t-48.5 110.5v395q0 45 21.5 81.5t58.5 55.5q49 29 105.5 19.5t93.5 -52.5l380 -385q46 -46 46 -110.5t-46 -110.5q-46 -47 -112 -47t-113 47z" />
    <glyph glyph-name="b" unicode="b" horiz-adv-x="656" 
d="M450 313q-5 -1 -5 -6.5t5 -5.5q84 3 140 64q21 -23 29 -34.5t15.5 -39.5t7.5 -71q0 -79 -71 -149t-151 -70h-264q-64 0 -110.5 48t-46.5 113v391q0 67 45.5 112.5t111.5 45.5h251q82 0 141.5 -58.5t59.5 -143.5q0 -70 -45 -125t-113 -71z" />
    <glyph glyph-name="c" unicode="c" horiz-adv-x="693" 
d="M354 711h140q69 0 119 -51t50 -119q0 -70 -49.5 -119.5t-119.5 -49.5q-28 0 -67 11.5t-52 11.5q-16 0 -27.5 -11.5t-11.5 -27.5q0 -15 11.5 -25.5t27.5 -10.5q13 0 52 11.5t67 11.5q69 0 119 -51.5t50 -122.5q0 -68 -50 -118.5t-119 -50.5h-145q-143 0 -246 106.5
t-103 249.5q0 148 103.5 250.5t250.5 104.5z" />
    <glyph glyph-name="d" unicode="d" horiz-adv-x="693" 
d="M306 1h-144q-68 0 -115 45.5t-47 110.5v395q0 66 46 113t113 47h154q146 0 248 -104t102 -251q0 -148 -104.5 -252t-252.5 -104zM324 320q17 0 28 10.5t11 25.5q0 16 -11 27.5t-28 11.5h-21v-75h21z" />
    <glyph glyph-name="e" unicode="e" horiz-adv-x="603" 
d="M0 550q0 68 45.5 114.5t115.5 46.5h261q46 0 82.5 -24.5t55 -60t18 -79.5t-24.5 -81q-42 -69 -139 -72q-5 0 -5 -5.5t5 -7.5q93 -12 149 47q21 -44 13.5 -95.5t-40.5 -84.5q-37 -41 -112 -50q-5 0 -5 -6t5 -6q92 -9 141 49q15 -25 15 -77q0 -56 -41 -107t-117 -51h-263
q-66 0 -112.5 46.5t-46.5 111.5v392z" />
    <glyph glyph-name="f" unicode="f" horiz-adv-x="592" 
d="M-1 552q0 77 40 118t116 41h263q65 0 111.5 -47t46.5 -112q0 -52 -32 -95t-82 -58q-23 -5 -49 -5q-6 -2 -6 -7.5t6 -5.5q53 -8 102 10q12 -29 12 -62q0 -65 -47 -111.5t-112 -46.5h-52v-17q0 -64 -47 -111t-111 -47q-65 0 -112 46.5t-47 111.5v398z" />
    <glyph glyph-name="g" unicode="g" horiz-adv-x="687" 
d="M-2 358q0 148 106.5 250t256.5 102h139q66 0 113 -45t47 -108q0 -56 -30.5 -96.5t-80.5 -55.5q-6 0 -6 -5t6 -8q47 -14 77.5 -56t30.5 -95v-84q0 -60 -48.5 -108t-108.5 -48h-142q-149 0 -254.5 104t-105.5 253zM342 283q0 -5 5.5 -6.5t8.5 4.5q28 76 93 104q6 1 4.5 6.5
t-6.5 5.5h-65q-19 0 -29.5 -11.5t-10.5 -30.5v-72z" />
    <glyph glyph-name="h" unicode="h" horiz-adv-x="713" 
d="M523 -1q-67 0 -114 46.5t-47 112.5v34q0 9 -6.5 15.5t-15.5 6.5t-15.5 -6.5t-6.5 -15.5v-34q0 -67 -46 -113t-113 -46q-66 0 -112.5 46t-46.5 113v394q0 66 46.5 112t112.5 46q67 0 113 -45.5t46 -112.5v-36q0 -8 6.5 -14.5t15.5 -6.5t15.5 6.5t6.5 14.5v36
q0 65 47 111.5t114 46.5q65 0 112 -46.5t47 -111.5v-394q0 -66 -47 -112.5t-112 -46.5z" />
    <glyph glyph-name="i" unicode="i" horiz-adv-x="351" 
d="M158 1q-66 0 -112 47t-46 113v390q0 65 46 111t112 46q68 0 114.5 -45.5t46.5 -111.5v-390q0 -66 -46.5 -113t-114.5 -47z" />
    <glyph glyph-name="j" unicode="j" horiz-adv-x="665" 
d="M474 711q67 0 114 -47t47 -113q0 -224 -1 -252q0 -140 -90.5 -220t-227.5 -86q-67 3 -124 22t-102.5 54.5t-70 94t-21.5 133.5q1 66 46.5 112.5t111.5 50.5q63 2 103.5 -33t48.5 -92q0 -3 4 -2.5t4 2.5v216q0 66 46 113t112 47z" />
    <glyph glyph-name="k" unicode="k" horiz-adv-x="735" 
d="M268 498l167 167q47 47 112.5 47t111.5 -47q47 -47 47 -112.5t-47 -112.5l-79 -81l89 -89q47 -47 47 -112.5t-47 -112.5q-46 -47 -111.5 -47t-112.5 47l-89 89l-73 -76q-53 -58 -126 -58q-65 0 -111 46t-46 111v396q0 67 46 113t111 46q58 0 101.5 -34.5t57.5 -89.5
l-58 -83q-2 -4 2 -7.5t8 0.5z" />
    <glyph glyph-name="l" unicode="l" horiz-adv-x="529" 
d="M162 0q-70 0 -117 46.5t-45 115.5v391q0 65 46.5 112t112.5 47q67 0 113.5 -47t46.5 -112l-2 -233h35q43 0 76.5 -17.5t51 -46t25.5 -62.5t0 -68t-25.5 -62.5t-51 -46t-76.5 -17.5h-190z" />
    <glyph glyph-name="m" unicode="m" horiz-adv-x="1129" 
d="M266 218q-5 2 -9 -1.5t-2 -7.5l59 -91q-11 -52 -55 -86t-99 -34q-67 0 -114 47t-47 114v395q0 65 47.5 112.5t113.5 47.5q69 0 121 -54l107 -109q0 68 47 115t113 47t113 -47l389 -391q49 -47 49 -114.5t-49 -114.5q-47 -48 -113 -48t-113 48l-169 172q-5 2 -9 -1.5
t0 -7.5l57 -91q-15 -56 -61.5 -89t-104 -29.5t-99.5 46.5z" />
    <glyph glyph-name="n" unicode="n" horiz-adv-x="740" 
d="M710 158q0 -73 -49 -116.5t-113.5 -41.5t-108.5 47q-128 124 -172 170q-3 6 -8 -2q-3 -4 -1 -8l57 -88q-11 -52 -55 -86.5t-100 -34.5q-66 0 -113 46.5t-47 113.5v394q0 65 47 112.5t113 47.5t122 -56l163 -160q2 -3 4.5 -2.5t4 3t0.5 5.5l-59 86q11 52 55 88t99 36
q67 0 114 -47t47 -113v-394z" />
    <glyph glyph-name="o" unicode="o" 
d="M360 720q151 0 258 -107t107 -257t-107 -256t-258 -106q-149 0 -256 106t-107 256t107 257t256 107zM360 394q-14 0 -25 -10.5t-11 -27.5q0 -16 11 -27.5t25 -11.5q16 0 27.5 11.5t11.5 27.5q0 17 -11.5 27.5t-27.5 10.5z" />
    <glyph glyph-name="p" unicode="p" horiz-adv-x="665" 
d="M166 -7q-70 0 -118 47.5t-48 115.5v392q0 67 48.5 114.5t117.5 47.5h197q119 0 201.5 -83t82.5 -202q0 -120 -86 -204t-206 -80l-18 98q-2 6 -6 5t-4 -7v-81q0 -66 -47.5 -114.5t-113.5 -48.5zM342 462q-10 0 -15 -2v-69q8 -5 15 -5q16 0 27.5 11.5t11.5 27.5t-11.5 26.5
t-27.5 10.5z" />
    <glyph glyph-name="q" unicode="q" horiz-adv-x="744" 
d="M356 715q149 0 255 -105.5t106 -254.5q0 -41 -8 -76l-81 50h-3l61 -60q30 -36 37.5 -79t-5 -79.5t-40 -65t-62.5 -41.5t-76.5 -3.5t-78.5 44.5l-50 49q-2 3 -5 0v-5l50 -78q-38 -13 -100 -13q-148 0 -253.5 104t-105.5 253q0 148 105.5 254t253.5 106zM356 394
q-16 0 -27.5 -12t-11.5 -27q0 -16 11.5 -26.5t27.5 -10.5q17 0 28.5 10.5t11.5 26.5q0 15 -12 27t-28 12z" />
    <glyph glyph-name="r" unicode="r" horiz-adv-x="699" 
d="M158 -2q-65 0 -112 47.5t-47 114.5v392q0 66 47.5 112t114.5 46h224q118 0 201 -83t83 -201q0 -73 -32.5 -135t-89.5 -102q-2 -2 -2 -4.5t2.5 -4.5t5.5 -1q54 25 90 66q34 -48 28.5 -105t-48.5 -100q-45 -45 -110.5 -46t-108.5 51l-86 102q-4 -63 -49.5 -106t-110.5 -43z
M336 458q-10 0 -18 -5v-68q5 -3 18 -3q16 0 26 10.5t10 26.5t-10.5 27.5t-25.5 11.5z" />
    <glyph glyph-name="s" unicode="s" horiz-adv-x="665" 
d="M635 553q0 -84 -71 -120q-47 27 -112 32q-6 0 -7.5 -5.5t4.5 -7.5q64 -15 108.5 -55t62 -90t11.5 -104.5t-35 -99.5t-86.5 -74.5t-133.5 -29.5h-219q-61 0 -110 52t-49 108q0 80 63 126q59 -39 138 -39q6 0 7 5.5t-5 7.5q-36 3 -83 26q-48 25 -77.5 67.5t-38.5 89.5
t3.5 95.5t42.5 87t84.5 63t123.5 23.5h217q67 0 114.5 -46t47.5 -112z" />
    <glyph glyph-name="t" unicode="t" horiz-adv-x="646" 
d="M155 710h315q67 0 114 -47.5t47 -113.5q0 -64 -46 -111t-112 -47l1 -233q0 -67 -47.5 -114.5t-113.5 -47.5q-65 0 -111.5 47.5t-46.5 114.5v233q-66 0 -112 47t-46 111q0 66 46 113.5t112 47.5z" />
    <glyph glyph-name="u" unicode="u" horiz-adv-x="710" 
d="M341 -7q-140 0 -240.5 100.5t-100.5 240.5v215q0 66 47 113.5t114 47.5q66 0 112 -47.5t46 -113.5v-196q0 -9 6.5 -17t15.5 -8t15.5 8t6.5 17v196q0 66 47 113.5t114 47.5q64 0 111 -47.5t47 -113.5v-215q0 -140 -101 -240.5t-240 -100.5z" />
    <glyph glyph-name="v" unicode="v" horiz-adv-x="731" 
d="M440 491q3 -2 6.5 -1t4.5 4t-2 6l-60 95q15 53 55 85t100 32q61 0 109.5 -47t48.5 -111v-395q0 -90 -79 -139q-50 -28 -106.5 -18t-92.5 53l-382 385q-47 45 -47 111t47 113t113 47t111 -47z" />
    <glyph glyph-name="w" unicode="w" horiz-adv-x="1118" 
d="M823 494q5 -2 8.5 1.5t1.5 7.5l-57 89q12 52 55 87.5t96 35.5q67 0 114 -47.5t47 -113.5v-395q0 -66 -47 -113.5t-114 -47.5q-68 0 -120 57l-107 107q0 -66 -47 -113q-45 -48 -111 -48t-114 48l-388 388q-45 47 -45 114.5t45 112.5q47 47 113 47t111 -47l171 -170
q3 -1 6.5 0t4.5 3.5t-2 5.5l-57 89q11 42 41.5 72t68.5 41t81 1t75 -42z" />
    <glyph glyph-name="x" unicode="x" horiz-adv-x="713" 
d="M345 586l80 80q45 47 108 47t108 -47q46 -46 46 -112t-46 -113l-76 -80l85 -90q45 -48 45 -114t-45 -111q-46 -48 -109 -48t-108 48l-88 90l-88 -90q-45 -48 -108 -48t-109 48q-45 45 -45 111t45 114l85 90l-76 80q-46 47 -46 113t46 112q45 47 109 47t107 -47z" />
    <glyph glyph-name="y" unicode="y" horiz-adv-x="699" 
d="M336 586l77 80q46 47 110.5 47t109.5 -47q45 -46 45 -112t-45 -113l-137 -140v-140q0 -66 -47 -112.5t-113 -46.5q-65 0 -112 46.5t-47 112.5v140l-137 140q-45 47 -45 113t45 112q45 47 108.5 47t108.5 -47z" />
    <glyph glyph-name="z" unicode="z" horiz-adv-x="675" 
d="M484 711q74 0 118 -49t42 -114.5t-48 -111.5l-170 -170q-1 -2 0 -5.5t3 -4.5t5 2l88 58q56 -13 90 -54.5t34 -102.5t-47.5 -110t-111.5 -49h-332q-66 0 -114 46.5t-48 112.5q0 69 57 121l159 162q4 4 0.5 8.5t-8.5 2.5l-82 -58q-54 13 -89 56.5t-35 100.5q0 65 47 112
t113 47h329z" />
    <glyph glyph-name="braceleft" unicode="{" horiz-adv-x="375" 
d="M226 809q28 21 58 26t54 -4t41 -28.5t23 -44t-3.5 -54t-35.5 -55.5q-61 -58 -66 -141q-3 -32 -5.5 -50.5t-10.5 -46t-25 -44.5t-42 -23q-3 0 -3 -2t3 -3q20 -5 35 -18.5t23 -28t14 -39t7.5 -38t3.5 -38.5q4 -80 66 -143q26 -25 35.5 -54.5t3.5 -54t-23 -44t-41 -29
t-54 -4.5t-58 26q-68 51 -106 131.5t-40 169.5q0 42 -38 75q-44 41 -44 92q0 53 44 90q21 21 29.5 37t8.5 41q2 87 40 168t106 131z" />
    <glyph glyph-name="bar" unicode="|" horiz-adv-x="269" 
d="M227 651v-658q0 -46 -31 -77.5t-76 -31.5q-44 0 -75 31.5t-31 77.5v658q0 46 31 77t75 31q45 0 76 -31t31 -77z" />
    <glyph glyph-name="braceright" unicode="}" horiz-adv-x="367" 
d="M109 -143q-28 -21 -58 -26t-54 4t-41 28.5t-23 44t3.5 54t35.5 55.5q28 27 46 71t20 86q3 32 5.5 50.5t10.5 46t25 44.5t42 23q3 0 3 2t-3 3q-20 5 -35 18.5t-23 28t-14 39t-7.5 38t-3.5 38.5q-2 42 -19.5 84.5t-46.5 71.5q-26 25 -35.5 54.5t-3.5 54t23 44t41 29t54 4.5
t58 -26q67 -50 105.5 -137t40.5 -177q0 -42 38 -75q44 -41 44 -92q0 -53 -44 -90q-21 -21 -29.5 -37t-8.5 -41q-2 -89 -40.5 -177.5t-105.5 -137.5z" />
    <glyph glyph-name="asciitilde" unicode="~" horiz-adv-x="610" 
d="M103 208q-55 14 -74 65.5t4 97.5q4 8 18 32q27 40 70.5 60t93.5 13q31 -4 70 -29t53 -53q0 -3 6 -3q3 0 3 3q6 45 41.5 67.5t79.5 11.5q38 -7 59.5 -34t22 -60t-11.5 -66q-7 -17 -18 -30q-59 -88 -164 -75q-18 2 -59 24q-16 10 -32 25t-24 25l-8 9l-3 2l-3 -2
q-6 -45 -42 -69t-82 -14z" />
    <glyph glyph-name="uni00A0" unicode="&#xa0;" horiz-adv-x="300" 
 />
    <glyph glyph-name="exclamdown" unicode="&#xa1;" horiz-adv-x="341" 
d="M28 473q-26 37 -26 86q0 65 45.5 110.5t110.5 45.5t110.5 -45.5t45.5 -110.5q0 -50 -29.5 -90.5t-76.5 -57.5q-4 0 -1 -6q0 -3 5 -3q50 8 88 47q14 -27 14 -64v-231q0 -65 -45.5 -110.5t-110.5 -45.5t-111.5 45.5t-46.5 110.5v231q0 45 28 88z" />
    <glyph glyph-name="cent" unicode="&#xa2;" horiz-adv-x="565" 
d="M187 9v10q-81 31 -131.5 103.5t-50.5 160.5q0 82 44 150.5t115 102.5l23 -115v142q0 43 29.5 72.5t71.5 29.5q43 0 72.5 -29.5t29.5 -72.5q59 0 100.5 -41t41.5 -99q0 -51 -32 -89t-81 -47q-6 0 -6 -5q0 -4 6 -4q49 -10 81 -47.5t32 -87.5q0 -54 -35 -93.5t-87 -47.5
l-20 113v-113q0 -39 -31.5 -66.5t-70.5 -27.5q-41 0 -71 30t-30 71z" />
    <glyph glyph-name="sterling" unicode="&#xa3;" horiz-adv-x="681" 
d="M116 486q10 65 45.5 114.5t84 73.5t105 33.5t110 -6t96 -44.5t67 -82.5t20.5 -119.5q-5 -67 -56.5 -117t-119.5 -50q-46 0 -86.5 21t-64.5 57q-2 6 -6 1q-1 -3 1 -6q21 -44 64.5 -68.5t94.5 -24.5h44q54 0 93 -39t39 -92q0 -55 -38.5 -94t-93.5 -39h-384q-55 0 -93.5 39
t-38.5 94q0 43 26 79t72 38l42 8q3 2 3 4t-3 2l-45 7q-38 4 -64 33.5t-26 67.5q0 46 31.5 78t75.5 32h5z" />
    <glyph glyph-name="currency" unicode="&#xa4;" horiz-adv-x="657" 
d="M577 398q52 -115 0 -231l3 -6q32 -31 32 -73t-32 -70q-28 -31 -70.5 -31t-73.5 31l-5 4q-54 -24 -114.5 -24t-115.5 24l-4 -2q-29 -31 -71 -31t-72 31q-31 28 -31 70t31 74l3 3q-49 116 0 231l-13 12q-30 31 -30 73.5t30 72.5q29 28 71.5 28t73.5 -28l12 -15
q55 24 115.5 24t114.5 -24l21 20q30 31 73 31t70 -31q31 -29 31 -71t-31 -71z" />
    <glyph glyph-name="yen" unicode="&#xa5;" horiz-adv-x="746" 
d="M590 285q-3 -3 0 -7q2 -1 3 1q45 17 75 55q34 -31 34 -76q0 -41 -29.5 -70.5t-72.5 -29.5h-68q-8 -68 -58.5 -114.5t-117.5 -46.5q-70 0 -120.5 46.5t-55.5 114.5h-69q-42 0 -72.5 29.5t-30.5 70.5q0 45 32 74q38 -38 79 -53q2 -3 4 0t-2 4q-57 46 -90 110.5t-33 139.5
t52 126.5t127 51.5q64 0 113 -40.5t60 -101.5q8 -8 8 0q13 61 62.5 101.5t113.5 40.5q74 0 126.5 -51.5t52.5 -126.5q0 -150 -123 -248z" />
    <glyph glyph-name="brokenbar" unicode="&#xa6;" horiz-adv-x="259" 
d="M221 631v-197q0 -46 -31 -77.5t-76 -31.5q-44 0 -75 31.5t-31 77.5v197q0 46 31 77t75 31q45 0 76 -31t31 -77zM221 175v-186q0 -46 -31 -77.5t-76 -31.5q-44 0 -75 31.5t-31 77.5v186q0 46 31 77t75 31q45 0 76 -31t31 -77z" />
    <glyph glyph-name="section" unicode="&#xa7;" horiz-adv-x="644" 
d="M280 -42h-152q-70 0 -103.5 47.5t-20.5 103.5t62 82q60 28 113 2q4 -2 6 0.5t-1 6.5q-74 47 -150 -3q-21 83 4.5 150t87.5 101q82 48 143 17q4 -3 6 2q1 4 -2 7q-35 23 -75.5 21t-74.5 -24q-31 119 31.5 199.5t181.5 80.5h157q69 0 102.5 -47t21 -103t-61.5 -80
q-65 -31 -115 -3q-6 4 -7 -2q0 -2 2 -4q32 -24 75 -24t75 24q18 -74 -8.5 -146.5t-85.5 -107.5q-72 -45 -145 -14q-3 -3 2 -6q31 -25 72.5 -24t75.5 24q29 -119 -33 -199.5t-183 -80.5z" />
    <glyph glyph-name="dieresis" unicode="&#xa8;" horiz-adv-x="586" 
d="M124 709q44 0 77.5 -32.5t33.5 -75.5q0 -46 -33 -77t-78 -31q-47 0 -79 31t-32 77q0 44 32.5 76t78.5 32zM428 709q44 0 77.5 -32.5t33.5 -75.5q0 -46 -33 -77t-78 -31q-47 0 -79 31t-32 77q0 44 32.5 76t78.5 32z" />
    <glyph glyph-name="copyright" unicode="&#xa9;" horiz-adv-x="787" 
d="M380 710q149 0 253.5 -104.5t104.5 -252.5q0 -147 -105 -252.5t-253 -105.5t-252.5 105.5t-104.5 252.5q0 149 104.5 253t252.5 104zM378 155h74q40 0 69 28.5t29 69.5q0 36 -22.5 62.5t-57.5 34.5q-5 0 0 8q35 6 57.5 32.5t22.5 62.5q0 41 -29 70.5t-69 29.5h-74
q-83 0 -142 -58.5t-59 -141.5t58.5 -140.5t142.5 -57.5z" />
    <glyph glyph-name="ordfeminine" unicode="&#xaa;" horiz-adv-x="456" 
d="M113 302h195q35 0 60 -25.5t25 -61.5q0 -35 -25 -59t-60 -24h-195q-36 0 -61.5 24t-25.5 59q0 36 25.5 61.5t61.5 25.5zM404 517v-97q0 -40 -28.5 -68t-69.5 -28q-33 0 -59 20.5t-34 53.5q0 2 -2.5 2t-2.5 -2q0 -35 22 -74h-19q-82 0 -139 56.5t-57 136.5q0 82 57 139
t139 57q80 0 136.5 -57t56.5 -139z" />
    <glyph glyph-name="guillemotleft" unicode="&#xab;" horiz-adv-x="538" 
d="M214 410l109 111l15 14q28 28 67 28t67 -28q27 -28 27 -67t-27 -66l-61 -60l-42 23q-2 3 -4 -1q-1 -2 0 -4q34 -32 107 -105q27 -27 27 -66t-27 -67q-28 -27 -67 -27t-67 27l-15 15l-109 109l90 -123l-1 -1h-3q-27 -27 -66 -27t-66 27l-140 139q-27 28 -27 67.5t27 66.5
l140 140q27 28 66 28t66 -28q2 0 3 -1l1 -1z" />
    <glyph glyph-name="logicalnot" unicode="&#xac;" horiz-adv-x="499" 
d="M116 453h238q43 0 73.5 -30.5t31.5 -74.5q0 -18 -0.5 -52t-0.5 -52q0 -43 -30 -74t-73 -31t-74.5 30.5t-31.5 72.5q-91 0 -133 2q-44 0 -74.5 30t-30.5 74t31 74.5t74 30.5z" />
    <glyph glyph-name="registered" unicode="&#xae;" horiz-adv-x="787" 
d="M388 710q148 0 252.5 -104t104.5 -253q0 -147 -104.5 -252.5t-252.5 -105.5t-252.5 105.5t-104.5 252.5q0 149 104.5 253t252.5 104zM244 250q0 -42 30.5 -71t72.5 -29q43 0 71.5 28.5t28.5 71.5v103q43 0 73 30t30 73q0 42 -30 72t-73 30h-46q-75 0 -116 -46t-41 -123
v-139z" />
    <glyph glyph-name="macron" unicode="&#xaf;" horiz-adv-x="472" 
d="M313 484h-197q-46 0 -77.5 31t-31.5 76q0 44 31.5 75t77.5 31h197q46 0 77 -31t31 -75q0 -45 -31 -76t-77 -31z" />
    <glyph glyph-name="degree" unicode="&#xb0;" horiz-adv-x="375" 
d="M269 673h1q39 -42 39 -102q0 -57 -40 -100q-42 -43 -103 -43t-103 42q-41 41 -41 101q0 59 41 103q42 42 103 42t103 -43z" />
    <glyph glyph-name="plusminus" unicode="&#xb1;" horiz-adv-x="555" 
d="M135 238h35q-6 17 -6 35v44h-43q-43 0 -73.5 30t-30.5 73t30.5 73.5t73.5 30.5h93q2 0 2 4t-2 4l-50 13v23q0 42 31 72.5t73 30.5q43 0 73 -30t30 -73v-44h44q43 0 74 -30.5t31 -73.5t-31 -73t-74 -30h-96q-1 0 -2 -2t-0.5 -4t2.5 -3l52 -11v-24q0 -13 -6 -35h27
q44 0 74.5 -30t30.5 -73t-30.5 -73t-74.5 -30h-257q-44 0 -74 29.5t-30 73.5t30 73.5t74 29.5z" />
    <glyph glyph-name="twosuperior" unicode="&#xb2;" horiz-adv-x="422" 
d="M90 298q-65 0 -86 45t17 98l84 113q1 3 -1 4t-3 -2l-55 -42q-52 36 -49 95q0 41 30.5 71t73.5 30h152q46 0 80 -21t48.5 -52t11 -69.5t-28.5 -72.5q-46 26 -97 4q-2 -1 -2 -3.5t1.5 -4t4.5 -0.5q33 9 73 -8q39 -20 49 -64.5t-16.5 -82.5t-81.5 -38h-205z" />
    <glyph glyph-name="threesuperior" unicode="&#xb3;" horiz-adv-x="407" 
d="M277 298h-195q-34 0 -57.5 24t-23.5 59q0 32 16 51q24 -15 52 -12q7 3 0 6q-28 5 -48 27t-20 52q0 26 14 47q21 -16 54 -9q2 0 2 2.5t-2 2.5q-30 3 -49 26.5t-19 54.5q0 33 23.5 57t57.5 24h197q45 0 72.5 -28.5t31 -64t-16.5 -68t-60 -38.5q-3 -3 0 -6q42 -8 63 -41.5
t17.5 -70t-32.5 -66t-77 -29.5z" />
    <glyph glyph-name="acute" unicode="&#xb4;" horiz-adv-x="400" 
d="M267 484l-125 -21q-45 -7 -81 18.5t-44 69.5q-7 43 19 78.5t71 43.5l125 21q45 7 80.5 -18t43.5 -69t-17.5 -80t-71.5 -43z" />
    <glyph glyph-name="mu" unicode="&#xb5;" horiz-adv-x="715" 
d="M388 421q0 64 44 105.5t106 39.5q60 2 103.5 -41t43.5 -104v-280q0 -59 -42 -101t-101 -42q-47 0 -84.5 28.5t-51.5 73.5q-5 9 -11 0q-14 -28 -47.5 -29.5t-52.5 19.5q-7 11 -7 0v-96q0 -60 -42.5 -102t-102.5 -42q-59 0 -101 42t-42 102v424q0 62 43.5 105.5t103.5 42.5
q62 2 106 -39.5t44 -105.5q0 -22 14 -34t31.5 -12t31.5 12t14 34z" />
    <glyph glyph-name="paragraph" unicode="&#xb6;" horiz-adv-x="678" 
d="M-2 423q0 120 84.5 204t202.5 84h184q74 0 126 -53t52 -128v-529q0 -75 -52 -127t-126 -52t-126 52t-52 127v272q0 4 -4 4t-4 -4l-15 -135q-113 6 -191.5 88.5t-78.5 196.5z" />
    <glyph glyph-name="periodcentered" unicode="&#xb7;" horiz-adv-x="286" 
d="M125 388q44 0 77.5 -32.5t33.5 -75.5q0 -46 -33 -77t-78 -31q-47 0 -79 31t-32 77q0 44 32.5 76t78.5 32z" />
    <glyph glyph-name="cedilla" unicode="&#xb8;" horiz-adv-x="290" 
d="M45 -29q17 35 30 69q0 5 -4 1l-26 -29q-21 29 -21 66q0 47 32.5 79.5t77.5 32.5q72 0 103 -62.5t-2 -131.5l-39 -91q-14 -31 -45.5 -43t-63.5 0q-30 15 -42.5 46t0.5 63z" />
    <glyph glyph-name="onesuperior" unicode="&#xb9;" horiz-adv-x="351" 
d="M179 258q-52 0 -88 36.5t-36 87.5v121q42 -7 69 13q2 0 1.5 2.5t-3.5 1.5q-30 -6 -59 4q-30 9 -48.5 35.5t-18.5 59.5q0 41 28.5 70t68.5 29h86q51 0 87.5 -36t36.5 -87v-213q0 -51 -36 -87.5t-88 -36.5z" />
    <glyph glyph-name="ordmasculine" unicode="&#xba;" horiz-adv-x="467" 
d="M428 501q0 -85 -60 -145t-145 -60q-86 0 -146 59.5t-60 145.5q0 84 60 143.5t146 59.5q85 0 145 -59.5t60 -143.5z" />
    <glyph glyph-name="guillemotright" unicode="&#xbb;" horiz-adv-x="528" 
d="M175 521l109 -111l-90 123l1 1q1 1 3 1q27 28 66 28t66 -28l140 -140q27 -27 27 -66.5t-27 -67.5l-140 -139q-27 -27 -66 -27t-66 27q-2 0 -3 1h-1l90 123l-109 -109l-15 -15q-28 -27 -67 -27t-67 27q-27 28 -27 67t27 66q73 73 107 105q1 4 -1 6q-2 1 -3 -1l-42 -23
l-61 60q-27 27 -27 66t27 67q29 28 67.5 28t66.5 -28z" />
    <glyph glyph-name="onequarter" unicode="&#xbc;" horiz-adv-x="674" 
d="M19 172l101 123q50 -20 103 8q3 3 -1 5h-5q-56 -18 -107 17t-51 97v81q37 -10 68 10q2 4 0 6h-3q-24 -4 -58 4q-28 10 -46.5 36t-18.5 57q0 39 28 67t68 28h82q51 0 87.5 -35t36.5 -86v-74l132 159q28 34 72 38t78 -25q34 -28 37.5 -72t-25.5 -78l-151 -188
q-18 35 -51 48t-68 2q-5 -7 2 -7q38 7 70 -16t41 -64h6q6 41 36.5 61.5t67.5 18.5t65 -29t28 -71v-101v-99q0 -41 -30.5 -71.5t-69.5 -30.5h-8h-8q-37 0 -66.5 22.5t-41.5 57.5q44 5 79 24q3 0 1 3l-5 2q-61 -14 -117.5 2t-89.5 58l-105 -125q-29 -35 -73 -39t-77 24
q-35 29 -39 73.5t26 78.5z" />
    <glyph glyph-name="onehalf" unicode="&#xbd;" horiz-adv-x="691" 
d="M20 172l100 123q53 -21 102 8q3 2 0 5q-1 1 -2 0q-51 -14 -90 7q-31 14 -50 43t-19 64v81q35 -10 67 10q2 2 1 4.5t-4 1.5q-23 -3 -54 4q-31 10 -49.5 35.5t-18.5 57.5q0 39 27.5 67t66.5 28h84q51 0 86 -35t35 -86v-74l134 159q28 34 72 38t78 -25q34 -28 37.5 -72
t-24.5 -78l-105 -131h-114q-32 0 -56.5 -18t-35.5 -47q-3 -5 2 -5q4 -1 5 2q30 54 88 54h141q43 0 75.5 -20t46.5 -49.5t10.5 -66t-27.5 -67.5q-42 23 -88 2q-8 -2 -3 -6q1 -1 3 -1q36 8 70 -7q37 -19 46.5 -61t-15.5 -77.5t-75 -35.5h-194q-62 0 -81.5 42t15.5 91l79 108
q3 3 0 3q-2 0 -3 -1l-52 -40q-2 0 -2 3l-146 -175q-28 -35 -72 -39t-79 24q-33 29 -36.5 73.5t24.5 78.5z" />
    <glyph glyph-name="threequarters" unicode="&#xbe;" horiz-adv-x="702" 
d="M226 306h-147q-34 0 -58 24t-24 58q0 28 17 51q22 -18 53 -13q2 0 2 2t-2 2q-28 4 -49 26.5t-21 50.5q0 29 15 48q21 -18 53 -8q3 0 0 5q-28 2 -48 24.5t-20 52.5q0 34 24 58t58 24h147q44 0 70.5 -28t30 -62.5t-16 -66.5t-58.5 -39q-2 0 -2 -3t2 -3q23 -3 43 -19
l159 191q28 34 72.5 38t78.5 -26q34 -28 38 -72t-25 -79l-154 -187q-17 34 -49.5 47t-67.5 2q-6 0 -2 -7l4 -2q38 8 70 -14.5t40 -64.5h5q8 42 38.5 63.5t68.5 19.5q36 -3 64.5 -31t28.5 -72v-102v-99q0 -42 -31 -72t-71 -30h-7h-7q-37 0 -67 23t-42 57q41 6 76 22q6 5 0 7
q-62 -15 -119 0.5t-92 60.5l-104 -127q-28 -34 -73 -38t-78 26q-34 28 -38 72.5t26 78.5l93 114h86q50 0 79 32q2 3 0 5t-6 0q-22 -20 -63 -20z" />
    <glyph glyph-name="questiondown" unicode="&#xbf;" horiz-adv-x="585" 
d="M392 422q-2 -2 -2 -6q4 -4 7 -2q41 20 62 55q6 -49 -13.5 -94.5t-63.5 -70.5h27q50 0 87 -22.5t53.5 -56.5t16.5 -73.5t-16.5 -73.5t-53.5 -56.5t-87 -22.5h-164q-76 0 -133 30.5t-84.5 77t-31.5 102t17 105t70.5 86.5t118.5 46q4 4 4 6q0 4 -4 4q-30 2 -54 -4v109
q4 62 49 104t107 42q65 0 110 -45.5t45 -110.5q0 -83 -67 -129z" />
    <glyph glyph-name="Agrave" unicode="&#xc0;" horiz-adv-x="728" 
d="M437 220q4 5 8 1.5t2 -9.5l-61 -94q13 -52 53.5 -84.5t100.5 -32.5q61 0 109.5 46.5t48.5 110.5v395q0 45 -21.5 81.5t-58.5 55.5q-49 29 -105.5 19.5t-93.5 -52.5l-380 -385q-46 -46 -46 -110.5t46 -110.5q47 -47 113 -47t112 47zM407 932l161 -29q42 -7 65.5 -40.5
t16.5 -74.5q-8 -40 -41.5 -62.5t-74.5 -15.5l-161 29q-41 7 -64.5 40.5t-16.5 73.5q8 41 41 63.5t74 15.5z" />
    <glyph glyph-name="Aacute" unicode="&#xc1;" horiz-adv-x="728" 
d="M437 220q4 5 8 1.5t2 -9.5l-61 -94q13 -52 53.5 -84.5t100.5 -32.5q61 0 109.5 46.5t48.5 110.5v395q0 45 -21.5 81.5t-58.5 55.5q-49 29 -105.5 19.5t-93.5 -52.5l-380 -385q-46 -46 -46 -110.5t46 -110.5q47 -47 113 -47t112 47zM703 734l-125 -21q-45 -7 -81 18.5
t-44 69.5q-7 43 19 78.5t71 43.5l125 21q45 7 80.5 -18t43.5 -69t-17.5 -80t-71.5 -43z" />
    <glyph glyph-name="Acircumflex" unicode="&#xc2;" horiz-adv-x="728" 
d="M437 220q4 5 8 1.5t2 -9.5l-61 -94q13 -52 53.5 -84.5t100.5 -32.5q61 0 109.5 46.5t48.5 110.5v395q0 45 -21.5 81.5t-58.5 55.5q-49 29 -105.5 19.5t-93.5 -52.5l-380 -385q-46 -46 -46 -110.5t46 -110.5q47 -47 113 -47t112 47zM460 911q27 23 65.5 23t65.5 -23
l101 -82q44 -36 31.5 -82.5t-54.5 -58.5t-85 19l-88 79q-2 3 -5 0v-3l39 -55l-69 -37q-28 -12 -54 -10t-43.5 19t-26 39t-1.5 48t31 47z" />
    <glyph glyph-name="Atilde" unicode="&#xc3;" horiz-adv-x="728" 
d="M437 220q4 5 8 1.5t2 -9.5l-61 -94q13 -52 53.5 -84.5t100.5 -32.5q61 0 109.5 46.5t48.5 110.5v395q0 45 -21.5 81.5t-58.5 55.5q-49 29 -105.5 19.5t-93.5 -52.5l-380 -385q-46 -46 -46 -110.5t46 -110.5q47 -47 113 -47t112 47zM429 698q-41 10 -54.5 47t3.5 70
q2 5 6.5 12.5t6.5 10.5q19 28 51 42.5t67 9.5q22 -3 50 -21t38 -38q0 -2 5 -2q2 0 2 2q4 33 30 49t57 7q39 -11 52.5 -46.5t-1.5 -67.5q-2 -4 -7 -12.5t-6 -9.5q-44 -63 -119 -53q-14 2 -42 17q-12 7 -23.5 18t-17.5 18l-6 7l-1 1l-2 -1q-4 -33 -30.5 -50.5t-58.5 -9.5z" />
    <glyph glyph-name="Adieresis" unicode="&#xc4;" horiz-adv-x="728" 
d="M406 905q44 0 77.5 -32.5t33.5 -75.5q0 -46 -33 -77t-78 -31q-47 0 -79 31t-32 77q0 44 32.5 76t78.5 32zM665 905q44 0 77.5 -32.5t33.5 -75.5q0 -46 -33 -77t-78 -31q-47 0 -79 31t-32 77q0 44 32.5 76t78.5 32zM437 220q4 5 8 1.5t2 -9.5l-61 -94q13 -52 53.5 -84.5
t100.5 -32.5q61 0 109.5 46.5t48.5 110.5v395q0 45 -21.5 81.5t-58.5 55.5q-49 29 -105.5 19.5t-93.5 -52.5l-380 -385q-46 -46 -46 -110.5t46 -110.5q47 -47 113 -47t112 47z" />
    <glyph glyph-name="Aring" unicode="&#xc5;" horiz-adv-x="728" 
d="M437 220q4 5 8 1.5t2 -9.5l-61 -94q13 -52 53.5 -84.5t100.5 -32.5q61 0 109.5 46.5t48.5 110.5v395q0 45 -21.5 81.5t-58.5 55.5q-49 29 -105.5 19.5t-93.5 -52.5l-380 -385q-46 -46 -46 -110.5t46 -110.5q47 -47 113 -47t112 47zM645 751h2q-38 -39 -94 -39
q-57 0 -95 39h2q-39 37 -39 94q0 58 39 94v-1q37 37 93 37t94 -37q37 -38 37 -93q0 -57 -39 -94z" />
    <glyph glyph-name="AE" unicode="&#xc6;" horiz-adv-x="1302" 
d="M440 220l-173 -169q-47 -47 -113 -47t-112 47q-46 46 -46 110.5t46 110.5l380 385q37 43 93.5 52.5t105.5 -19.5q37 -19 58.5 -55.5t21.5 -81.5v-395q0 -64 -48.5 -110.5t-109.5 -46.5q-60 0 -100.5 32.5t-53.5 84.5l61 94q2 6 -2 9.5t-8 -1.5zM703 550q0 68 45.5 114.5
t115.5 46.5h261q46 0 82.5 -24.5t55 -60t18 -79.5t-24.5 -81q-42 -69 -139 -72q-5 0 -5 -5.5t5 -7.5q93 -12 149 47q21 -44 13.5 -95.5t-40.5 -84.5q-37 -41 -112 -50q-5 0 -5 -6t5 -6q92 -9 141 49q15 -25 15 -77q0 -56 -41 -107t-117 -51h-263q-66 0 -112.5 46.5
t-46.5 111.5v392z" />
    <glyph glyph-name="Ccedilla" unicode="&#xc7;" horiz-adv-x="693" 
d="M354 711h140q69 0 119 -51t50 -119q0 -70 -49.5 -119.5t-119.5 -49.5q-28 0 -67 11.5t-52 11.5q-16 0 -27.5 -11.5t-11.5 -27.5q0 -15 11.5 -25.5t27.5 -10.5q13 0 52 11.5t67 11.5q69 0 119 -51.5t50 -122.5q0 -68 -50 -118.5t-119 -50.5h-145q-143 0 -246 106.5
t-103 249.5q0 148 103.5 250.5t250.5 104.5zM316 -29q17 35 30 69q0 5 -4 1l-26 -29q-21 29 -21 66q0 47 32.5 79.5t77.5 32.5q72 0 103 -62.5t-2 -131.5l-39 -91q-14 -31 -45.5 -43t-63.5 0q-30 15 -42.5 46t0.5 63z" />
    <glyph glyph-name="Egrave" unicode="&#xc8;" horiz-adv-x="599" 
d="M0 550q0 68 45.5 114.5t115.5 46.5h261q46 0 82.5 -24.5t55 -60t18 -79.5t-24.5 -81q-42 -69 -139 -72q-5 0 -5 -5.5t5 -7.5q93 -12 149 47q21 -44 13.5 -95.5t-40.5 -84.5q-37 -41 -112 -50q-5 0 -5 -6t5 -6q92 -9 141 49q15 -25 15 -77q0 -56 -41 -107t-117 -51h-263
q-66 0 -112.5 46.5t-46.5 111.5v392zM224 935l161 -29q42 -7 65.5 -40.5t16.5 -74.5q-8 -40 -41.5 -62.5t-74.5 -15.5l-161 29q-41 7 -64.5 40.5t-16.5 73.5q8 41 41 63.5t74 15.5z" />
    <glyph glyph-name="Eacute" unicode="&#xc9;" horiz-adv-x="599" 
d="M0 550q0 68 45.5 114.5t115.5 46.5h261q46 0 82.5 -24.5t55 -60t18 -79.5t-24.5 -81q-42 -69 -139 -72q-5 0 -5 -5.5t5 -7.5q93 -12 149 47q21 -44 13.5 -95.5t-40.5 -84.5q-37 -41 -112 -50q-5 0 -5 -6t5 -6q92 -9 141 49q15 -25 15 -77q0 -56 -41 -107t-117 -51h-263
q-66 0 -112.5 46.5t-46.5 111.5v392zM380 730l-125 -21q-45 -7 -81 18.5t-44 69.5q-7 43 19 78.5t71 43.5l125 21q45 7 80.5 -18t43.5 -69t-17.5 -80t-71.5 -43z" />
    <glyph glyph-name="Ecircumflex" unicode="&#xca;" horiz-adv-x="599" 
d="M0 550q0 68 45.5 114.5t115.5 46.5h261q46 0 82.5 -24.5t55 -60t18 -79.5t-24.5 -81q-42 -69 -139 -72q-5 0 -5 -5.5t5 -7.5q93 -12 149 47q21 -44 13.5 -95.5t-40.5 -84.5q-37 -41 -112 -50q-5 0 -5 -6t5 -6q92 -9 141 49q15 -25 15 -77q0 -56 -41 -107t-117 -51h-263
q-66 0 -112.5 46.5t-46.5 111.5v392zM224 931q27 23 65.5 23t64.5 -23l100 -81q44 -36 32 -82.5t-54 -58.5t-85 19l-87 79q-2 2 -5 0v-3l38 -55l-68 -37q-27 -12 -53 -10t-43.5 19t-26 38.5t-1.5 48t31 46.5z" />
    <glyph glyph-name="Edieresis" unicode="&#xcb;" horiz-adv-x="599" 
d="M168 917q44 0 77.5 -32.5t33.5 -75.5q0 -46 -33 -77t-78 -31q-47 0 -79 31t-32 77q0 44 32.5 76t78.5 32zM409 917q44 0 77.5 -32.5t33.5 -75.5q0 -46 -33 -77t-78 -31q-47 0 -79 31t-32 77q0 44 32.5 76t78.5 32zM0 550q0 68 45.5 114.5t115.5 46.5h261q46 0 82.5 -24.5
t55 -60t18 -79.5t-24.5 -81q-42 -69 -139 -72q-5 0 -5 -5.5t5 -7.5q93 -12 149 47q21 -44 13.5 -95.5t-40.5 -84.5q-37 -41 -112 -50q-5 0 -5 -6t5 -6q92 -9 141 49q15 -25 15 -77q0 -56 -41 -107t-117 -51h-263q-66 0 -112.5 46.5t-46.5 111.5v392z" />
    <glyph glyph-name="Igrave" unicode="&#xcc;" horiz-adv-x="351" 
d="M158 1q-66 0 -112 47t-46 113v390q0 65 46 111t112 46q68 0 114.5 -45.5t46.5 -111.5v-390q0 -66 -46.5 -113t-114.5 -47zM103 917l161 -29q42 -7 65.5 -40.5t16.5 -74.5q-8 -40 -41.5 -62.5t-74.5 -15.5l-161 29q-41 7 -64.5 40.5t-16.5 73.5q8 41 41 63.5t74 15.5z" />
    <glyph glyph-name="Iacute" unicode="&#xcd;" horiz-adv-x="351" 
d="M158 1q-66 0 -112 47t-46 113v390q0 65 46 111t112 46q68 0 114.5 -45.5t46.5 -111.5v-390q0 -66 -46.5 -113t-114.5 -47zM256 721l-125 -21q-45 -7 -81 18.5t-44 69.5q-7 43 19 78.5t71 43.5l125 21q45 7 80.5 -18t43.5 -69t-17.5 -80t-71.5 -43z" />
    <glyph glyph-name="Icircumflex" unicode="&#xce;" horiz-adv-x="351" 
d="M158 1q-66 0 -112 47t-46 113v390q0 65 46 111t112 46q68 0 114.5 -45.5t46.5 -111.5v-390q0 -66 -46.5 -113t-114.5 -47zM80 912q28 22 67 22t66 -22l102 -83q45 -37 32.5 -84.5t-55.5 -59.5t-87 20l-88 80q-2 3 -5 0v-3l39 -56l-70 -38q-37 -19 -66.5 -7.5t-48 35
t-14.5 57.5t34 60z" />
    <glyph glyph-name="Idieresis" unicode="&#xcf;" horiz-adv-x="351" 
d="M46 886q42 0 73.5 -30.5t31.5 -71.5q0 -43 -31 -72.5t-74 -29.5q-44 0 -74.5 29t-30.5 73q0 41 31 71.5t74 30.5zM279 886q42 0 73.5 -30.5t31.5 -71.5q0 -43 -31 -72.5t-74 -29.5q-44 0 -74 29t-30 73q0 41 30.5 71.5t73.5 30.5zM158 1q-66 0 -112 47t-46 113v390
q0 65 46 111t112 46q68 0 114.5 -45.5t46.5 -111.5v-390q0 -66 -46.5 -113t-114.5 -47z" />
    <glyph glyph-name="Eth" unicode="&#xd0;" horiz-adv-x="693" 
d="M306 1h-144q-68 0 -115 45.5t-47 110.5v395q0 66 46 113t113 47h154q146 0 248 -104t102 -251q0 -148 -104.5 -252t-252.5 -104zM324 320q17 0 28 10.5t11 25.5q0 16 -11 27.5t-28 11.5h-21v-75h21zM279 419h133q46 0 77.5 -31t31.5 -76q0 -44 -31.5 -75t-77.5 -31h-133
q-46 0 -77 31t-31 75q0 45 31 76t77 31z" />
    <glyph glyph-name="Ntilde" unicode="&#xd1;" horiz-adv-x="740" 
d="M710 158q0 -73 -49 -116.5t-113.5 -41.5t-108.5 47q-128 124 -172 170q-3 6 -8 -2q-3 -4 -1 -8l57 -88q-11 -52 -55 -86.5t-100 -34.5q-66 0 -113 46.5t-47 113.5v394q0 65 47 112.5t113 47.5t122 -56l163 -160q2 -3 4.5 -2.5t4 3t0.5 5.5l-59 86q11 52 55 88t99 36
q67 0 114 -47t47 -113v-394zM219 684q-46 11 -62.5 54.5t3.5 81.5q2 6 15 27q22 33 59 50t78 11q26 -3 58 -24t44 -44q0 -3 6 -3q2 0 2 3q4 38 34 56.5t67 8.5q46 -13 61.5 -54.5t-2.5 -79.5q-9 -15 -16 -25q-49 -72 -137 -62q-13 1 -48 20q-14 8 -28 20.5t-21 21.5l-6 8
l-2 1l-2 -1q-5 -38 -35 -58.5t-68 -11.5z" />
    <glyph glyph-name="Ograve" unicode="&#xd2;" 
d="M360 720q151 0 258 -107t107 -257t-107 -256t-258 -106q-149 0 -256 106t-107 256t107 257t256 107zM360 394q-14 0 -25 -10.5t-11 -27.5q0 -16 11 -27.5t25 -11.5q16 0 27.5 11.5t11.5 27.5q0 17 -11.5 27.5t-27.5 10.5zM307 930l161 -29q42 -7 65.5 -40.5t16.5 -74.5
q-8 -40 -41.5 -62.5t-74.5 -15.5l-161 29q-41 7 -64.5 40.5t-16.5 73.5q8 41 41 63.5t74 15.5z" />
    <glyph glyph-name="Oacute" unicode="&#xd3;" 
d="M360 720q151 0 258 -107t107 -257t-107 -256t-258 -106q-149 0 -256 106t-107 256t107 257t256 107zM360 394q-14 0 -25 -10.5t-11 -27.5q0 -16 11 -27.5t25 -11.5q16 0 27.5 11.5t11.5 27.5q0 17 -11.5 27.5t-27.5 10.5zM456 732l-125 -21q-45 -7 -81 18.5t-44 69.5
q-7 43 19 78.5t71 43.5l125 21q45 7 80.5 -18t43.5 -69t-17.5 -80t-71.5 -43z" />
    <glyph glyph-name="Ocircumflex" unicode="&#xd4;" 
d="M360 720q151 0 258 -107t107 -257t-107 -256t-258 -106q-149 0 -256 106t-107 256t107 257t256 107zM360 394q-14 0 -25 -10.5t-11 -27.5q0 -16 11 -27.5t25 -11.5q16 0 27.5 11.5t11.5 27.5q0 17 -11.5 27.5t-27.5 10.5zM278 939q28 24 67 24t67 -24l103 -87
q45 -39 32.5 -88t-56 -61.5t-87.5 20.5l-89 83q-2 3 -5 0v-3l39 -58l-70 -39q-28 -13 -55 -11t-44.5 20.5t-26.5 41t-1.5 50.5t31.5 50z" />
    <glyph glyph-name="Otilde" unicode="&#xd5;" 
d="M360 720q151 0 258 -107t107 -257t-107 -256t-258 -106q-149 0 -256 106t-107 256t107 257t256 107zM360 394q-14 0 -25 -10.5t-11 -27.5q0 -16 11 -27.5t25 -11.5q16 0 27.5 11.5t11.5 27.5q0 17 -11.5 27.5t-27.5 10.5zM215 708q-43 11 -57.5 50.5t3.5 74.5q3 6 14 25
q20 30 54 45.5t72 10.5q24 -3 53.5 -22t40.5 -41q0 -3 5 -3q2 0 2 3q4 35 31.5 52t61.5 8q42 -12 56.5 -50t-2.5 -73q-4 -9 -14 -23q-45 -67 -126 -57q-12 1 -45 18q-13 8 -25.5 19.5t-18.5 18.5l-6 8l-2 1l-2 -1q-4 -35 -32 -53.5t-63 -10.5z" />
    <glyph glyph-name="Odieresis" unicode="&#xd6;" 
d="M360 720q151 0 258 -107t107 -257t-107 -256t-258 -106q-149 0 -256 106t-107 256t107 257t256 107zM360 394q-14 0 -25 -10.5t-11 -27.5q0 -16 11 -27.5t25 -11.5q16 0 27.5 11.5t11.5 27.5q0 17 -11.5 27.5t-27.5 10.5zM215 892q41 0 72 -29.5t31 -69.5
q0 -42 -30.5 -71t-72.5 -29q-43 0 -72.5 28.5t-29.5 71.5q0 40 30 69.5t72 29.5zM496 892q41 0 71.5 -29.5t30.5 -69.5q0 -42 -30.5 -71t-71.5 -29q-44 0 -73.5 28.5t-29.5 71.5q0 40 30 69.5t73 29.5z" />
    <glyph glyph-name="Oslash" unicode="&#xd8;" 
d="M360 720q151 0 258 -107t107 -257t-107 -256t-258 -106q-149 0 -256 106t-107 256t107 257t256 107zM360 394q-14 0 -25 -10.5t-11 -27.5q0 -16 11 -27.5t25 -11.5q16 0 27.5 11.5t11.5 27.5q0 17 -11.5 27.5t-27.5 10.5zM178 61q10 36 90.5 312t97.5 334q11 44 51 65.5
t83 8.5q43 -12 65.5 -51t10.5 -83q-29 -105 -89.5 -310t-98.5 -337q-14 -44 -53.5 -65.5t-82.5 -8.5q-44 12 -65.5 51.5t-8.5 83.5z" />
    <glyph glyph-name="Ugrave" unicode="&#xd9;" horiz-adv-x="710" 
d="M341 -7q-140 0 -240.5 100.5t-100.5 240.5v215q0 66 47 113.5t114 47.5q66 0 112 -47.5t46 -113.5v-196q0 -9 6.5 -17t15.5 -8t15.5 8t6.5 17v196q0 66 47 113.5t114 47.5q64 0 111 -47.5t47 -113.5v-215q0 -140 -101 -240.5t-240 -100.5zM284 901l161 -29
q42 -7 65.5 -40.5t16.5 -74.5q-8 -40 -41.5 -62.5t-74.5 -15.5l-161 29q-41 7 -64.5 40.5t-16.5 73.5q8 41 41 63.5t74 15.5z" />
    <glyph glyph-name="Uacute" unicode="&#xda;" horiz-adv-x="710" 
d="M341 -7q-140 0 -240.5 100.5t-100.5 240.5v215q0 66 47 113.5t114 47.5q66 0 112 -47.5t46 -113.5v-196q0 -9 6.5 -17t15.5 -8t15.5 8t6.5 17v196q0 66 47 113.5t114 47.5q64 0 111 -47.5t47 -113.5v-215q0 -140 -101 -240.5t-240 -100.5zM442 693l-125 -21
q-45 -7 -81 18.5t-44 69.5q-7 43 19 78.5t71 43.5l125 21q45 7 80.5 -18t43.5 -69t-17.5 -80t-71.5 -43z" />
    <glyph glyph-name="Ucircumflex" unicode="&#xdb;" horiz-adv-x="710" 
d="M341 -7q-140 0 -240.5 100.5t-100.5 240.5v215q0 66 47 113.5t114 47.5q66 0 112 -47.5t46 -113.5v-196q0 -9 6.5 -17t15.5 -8t15.5 8t6.5 17v196q0 66 47 113.5t114 47.5q64 0 111 -47.5t47 -113.5v-215q0 -140 -101 -240.5t-240 -100.5zM265 935q29 24 70 24t69 -24
l107 -87q28 -23 34.5 -52.5t-7 -52t-35.5 -38t-52 -13t-55 25.5l-93 84q-2 3 -5 0v-3l41 -59l-73 -39q-29 -13 -57 -10.5t-46.5 20.5t-28 41t-1.5 51t33 50z" />
    <glyph glyph-name="Udieresis" unicode="&#xdc;" horiz-adv-x="710" 
d="M341 -7q-140 0 -240.5 100.5t-100.5 240.5v215q0 66 47 113.5t114 47.5q66 0 112 -47.5t46 -113.5v-196q0 -9 6.5 -17t15.5 -8t15.5 8t6.5 17v196q0 66 47 113.5t114 47.5q64 0 111 -47.5t47 -113.5v-215q0 -140 -101 -240.5t-240 -100.5zM188 909q44 0 77.5 -32.5
t33.5 -75.5q0 -46 -33 -77t-78 -31q-47 0 -79 31t-32 77q0 44 32.5 76t78.5 32zM492 909q44 0 77.5 -32.5t33.5 -75.5q0 -46 -33 -77t-78 -31q-47 0 -79 31t-32 77q0 44 32.5 76t78.5 32z" />
    <glyph glyph-name="Yacute" unicode="&#xdd;" horiz-adv-x="699" 
d="M413 666l-77 -80l-79 80q-45 47 -108.5 47t-108.5 -47q-45 -46 -45 -112t45 -113l137 -140v-140q0 -66 47 -112.5t112 -46.5q66 0 113 46.5t47 112.5v140l137 140q45 47 45 113t-45 112q-45 47 -109.5 47t-110.5 -47zM430 693l-125 -21q-45 -7 -81 18.5t-44 69.5
q-7 43 19 78.5t71 43.5l125 21q45 7 80.5 -18t43.5 -69t-17.5 -80t-71.5 -43z" />
    <glyph glyph-name="Thorn" unicode="&#xde;" horiz-adv-x="576" 
d="M324 136h-83q-3 0 -3 -3.5t3 -3.5l78 -16q-16 -53 -58.5 -86.5t-96.5 -33.5q-68 0 -116 52.5t-48 128.5v373q0 74 47 121t117 47q53 0 95.5 -29t59.5 -78l-78 -17q-3 0 -3 -3t3 -3h83q92 0 157 -66t65 -159t-65 -158.5t-157 -65.5z" />
    <glyph glyph-name="germandbls" unicode="&#xdf;" horiz-adv-x="579" 
d="M141 1q-59 0 -100 41.5t-41 99.5v349q0 87 47.5 152t133.5 65h118q82 0 141.5 -58.5t59.5 -139.5q0 -82 -57.5 -140t-138.5 -60q-3 0 -4 -2q2 -2 4 -3q50 -9 98.5 12t80.5 63q46 -49 60 -115.5t-3 -124.5t-72 -98.5t-136 -40.5h-191z" />
    <glyph glyph-name="agrave" unicode="&#xe0;" horiz-adv-x="728" 
d="M260 220q-4 5 -8 1.5t-2 -9.5l61 -94q-13 -52 -53.5 -84.5t-100.5 -32.5q-61 0 -109.5 46.5t-48.5 110.5v395q0 45 21.5 81.5t58.5 55.5q49 29 105.5 19.5t93.5 -52.5l380 -385q46 -46 46 -110.5t-46 -110.5q-46 -47 -112 -47t-113 47zM112 916l161 -29q42 -7 65.5 -40.5
t16.5 -74.5q-8 -40 -41.5 -62.5t-74.5 -15.5l-161 29q-41 7 -64.5 40.5t-16.5 73.5q8 41 41 63.5t74 15.5z" />
    <glyph glyph-name="aacute" unicode="&#xe1;" horiz-adv-x="728" 
d="M260 220q-4 5 -8 1.5t-2 -9.5l61 -94q-13 -52 -53.5 -84.5t-100.5 -32.5q-61 0 -109.5 46.5t-48.5 110.5v395q0 45 21.5 81.5t58.5 55.5q49 29 105.5 19.5t93.5 -52.5l380 -385q46 -46 46 -110.5t-46 -110.5q-46 -47 -112 -47t-113 47zM246 722l-125 -21q-45 -7 -81 18.5
t-44 69.5q-7 43 19 78.5t71 43.5l125 21q45 7 80.5 -18t43.5 -69t-17.5 -80t-71.5 -43z" />
    <glyph glyph-name="acircumflex" unicode="&#xe2;" horiz-adv-x="728" 
d="M260 220q-4 5 -8 1.5t-2 -9.5l61 -94q-13 -52 -53.5 -84.5t-100.5 -32.5q-61 0 -109.5 46.5t-48.5 110.5v395q0 45 21.5 81.5t58.5 55.5q49 29 105.5 19.5t93.5 -52.5l380 -385q46 -46 46 -110.5t-46 -110.5q-46 -47 -112 -47t-113 47zM114 902q26 22 64.5 22t64.5 -22
l99 -81q26 -22 32 -49t-6.5 -48t-32.5 -35t-48 -11.5t-51 23.5l-87 78q-2 2 -3.5 0.5t-0.5 -3.5l38 -55l-68 -36q-27 -12 -53 -10t-43.5 19t-26 38.5t-1 47.5t30.5 46z" />
    <glyph glyph-name="atilde" unicode="&#xe3;" horiz-adv-x="728" 
d="M260 220q-4 5 -8 1.5t-2 -9.5l61 -94q-13 -52 -53.5 -84.5t-100.5 -32.5q-61 0 -109.5 46.5t-48.5 110.5v395q0 45 21.5 81.5t58.5 55.5q49 29 105.5 19.5t93.5 -52.5l380 -385q46 -46 46 -110.5t-46 -110.5q-46 -47 -112 -47t-113 47zM48 683q-41 10 -54.5 48t2.5 73
q2 4 14 24q18 30 50.5 44.5t68.5 9.5q22 -3 50.5 -21.5t38.5 -39.5q0 -3 5 -3q2 0 2 3q4 34 30 50.5t58 7.5q40 -12 53.5 -48t-2.5 -71q-3 -6 -14 -22q-42 -65 -119 -55q-12 1 -42 17q-12 8 -24 19t-18 19l-6 7l-2 1l-2 -1q-4 -34 -30 -52t-59 -10z" />
    <glyph glyph-name="adieresis" unicode="&#xe4;" horiz-adv-x="728" 
d="M39 919q44 0 77.5 -32.5t33.5 -75.5q0 -46 -33 -77t-78 -31q-47 0 -79 31t-32 77q0 44 32.5 76t78.5 32zM291 919q44 0 77.5 -32.5t33.5 -75.5q0 -46 -33 -77t-78 -31q-47 0 -79 31t-32 77q0 44 32.5 76t78.5 32zM260 220q-4 5 -8 1.5t-2 -9.5l61 -94
q-13 -52 -53.5 -84.5t-100.5 -32.5q-61 0 -109.5 46.5t-48.5 110.5v395q0 45 21.5 81.5t58.5 55.5q49 29 105.5 19.5t93.5 -52.5l380 -385q46 -46 46 -110.5t-46 -110.5q-46 -47 -112 -47t-113 47z" />
    <glyph glyph-name="aring" unicode="&#xe5;" horiz-adv-x="728" 
d="M260 220q-4 5 -8 1.5t-2 -9.5l61 -94q-13 -52 -53.5 -84.5t-100.5 -32.5q-61 0 -109.5 46.5t-48.5 110.5v395q0 45 21.5 81.5t58.5 55.5q49 29 105.5 19.5t93.5 -52.5l380 -385q46 -46 46 -110.5t-46 -110.5q-46 -47 -112 -47t-113 47zM250 732h2q-38 -39 -94 -39
q-57 0 -95 39h2q-39 38 -39 94q0 58 39 94v-1q37 37 93 37t94 -37q37 -38 37 -93q0 -56 -39 -94z" />
    <glyph glyph-name="ae" unicode="&#xe6;" horiz-adv-x="1302" 
d="M440 220l-173 -169q-47 -47 -113 -47t-112 47q-46 46 -46 110.5t46 110.5l380 385q37 43 93.5 52.5t105.5 -19.5q37 -19 58.5 -55.5t21.5 -81.5v-395q0 -64 -48.5 -110.5t-109.5 -46.5q-60 0 -100.5 32.5t-53.5 84.5l61 94q2 6 -2 9.5t-8 -1.5zM703 550q0 68 45.5 114.5
t115.5 46.5h261q46 0 82.5 -24.5t55 -60t18 -79.5t-24.5 -81q-42 -69 -139 -72q-5 0 -5 -5.5t5 -7.5q93 -12 149 47q21 -44 13.5 -95.5t-40.5 -84.5q-37 -41 -112 -50q-5 0 -5 -6t5 -6q92 -9 141 49q15 -25 15 -77q0 -56 -41 -107t-117 -51h-263q-66 0 -112.5 46.5
t-46.5 111.5v392z" />
    <glyph glyph-name="ccedilla" unicode="&#xe7;" horiz-adv-x="693" 
d="M354 711h140q69 0 119 -51t50 -119q0 -70 -49.5 -119.5t-119.5 -49.5q-28 0 -67 11.5t-52 11.5q-16 0 -27.5 -11.5t-11.5 -27.5q0 -15 11.5 -25.5t27.5 -10.5q13 0 52 11.5t67 11.5q69 0 119 -51.5t50 -122.5q0 -68 -50 -118.5t-119 -50.5h-145q-143 0 -246 106.5
t-103 249.5q0 148 103.5 250.5t250.5 104.5zM316 -29q17 35 30 69q0 5 -4 1l-26 -29q-21 29 -21 66q0 47 32.5 79.5t77.5 32.5q72 0 103 -62.5t-2 -131.5l-39 -91q-14 -31 -45.5 -43t-63.5 0q-30 15 -42.5 46t0.5 63z" />
    <glyph glyph-name="egrave" unicode="&#xe8;" horiz-adv-x="599" 
d="M0 550q0 68 45.5 114.5t115.5 46.5h261q46 0 82.5 -24.5t55 -60t18 -79.5t-24.5 -81q-42 -69 -139 -72q-5 0 -5 -5.5t5 -7.5q93 -12 149 47q21 -44 13.5 -95.5t-40.5 -84.5q-37 -41 -112 -50q-5 0 -5 -6t5 -6q92 -9 141 49q15 -25 15 -77q0 -56 -41 -107t-117 -51h-263
q-66 0 -112.5 46.5t-46.5 111.5v392zM224 935l161 -29q42 -7 65.5 -40.5t16.5 -74.5q-8 -40 -41.5 -62.5t-74.5 -15.5l-161 29q-41 7 -64.5 40.5t-16.5 73.5q8 41 41 63.5t74 15.5z" />
    <glyph glyph-name="eacute" unicode="&#xe9;" horiz-adv-x="599" 
d="M0 550q0 68 45.5 114.5t115.5 46.5h261q46 0 82.5 -24.5t55 -60t18 -79.5t-24.5 -81q-42 -69 -139 -72q-5 0 -5 -5.5t5 -7.5q93 -12 149 47q21 -44 13.5 -95.5t-40.5 -84.5q-37 -41 -112 -50q-5 0 -5 -6t5 -6q92 -9 141 49q15 -25 15 -77q0 -56 -41 -107t-117 -51h-263
q-66 0 -112.5 46.5t-46.5 111.5v392zM380 730l-125 -21q-45 -7 -81 18.5t-44 69.5q-7 43 19 78.5t71 43.5l125 21q45 7 80.5 -18t43.5 -69t-17.5 -80t-71.5 -43z" />
    <glyph glyph-name="ecircumflex" unicode="&#xea;" horiz-adv-x="599" 
d="M0 550q0 68 45.5 114.5t115.5 46.5h261q46 0 82.5 -24.5t55 -60t18 -79.5t-24.5 -81q-42 -69 -139 -72q-5 0 -5 -5.5t5 -7.5q93 -12 149 47q21 -44 13.5 -95.5t-40.5 -84.5q-37 -41 -112 -50q-5 0 -5 -6t5 -6q92 -9 141 49q15 -25 15 -77q0 -56 -41 -107t-117 -51h-263
q-66 0 -112.5 46.5t-46.5 111.5v392zM224 931q27 23 65.5 23t64.5 -23l100 -81q44 -36 32 -82.5t-54 -58.5t-85 19l-87 79q-2 2 -5 0v-3l38 -55l-68 -37q-27 -12 -53 -10t-43.5 19t-26 38.5t-1.5 48t31 46.5z" />
    <glyph glyph-name="edieresis" unicode="&#xeb;" horiz-adv-x="599" 
d="M168 917q44 0 77.5 -32.5t33.5 -75.5q0 -46 -33 -77t-78 -31q-47 0 -79 31t-32 77q0 44 32.5 76t78.5 32zM409 917q44 0 77.5 -32.5t33.5 -75.5q0 -46 -33 -77t-78 -31q-47 0 -79 31t-32 77q0 44 32.5 76t78.5 32zM0 550q0 68 45.5 114.5t115.5 46.5h261q46 0 82.5 -24.5
t55 -60t18 -79.5t-24.5 -81q-42 -69 -139 -72q-5 0 -5 -5.5t5 -7.5q93 -12 149 47q21 -44 13.5 -95.5t-40.5 -84.5q-37 -41 -112 -50q-5 0 -5 -6t5 -6q92 -9 141 49q15 -25 15 -77q0 -56 -41 -107t-117 -51h-263q-66 0 -112.5 46.5t-46.5 111.5v392z" />
    <glyph glyph-name="igrave" unicode="&#xec;" horiz-adv-x="351" 
d="M158 1q-66 0 -112 47t-46 113v390q0 65 46 111t112 46q68 0 114.5 -45.5t46.5 -111.5v-390q0 -66 -46.5 -113t-114.5 -47zM103 917l161 -29q42 -7 65.5 -40.5t16.5 -74.5q-8 -40 -41.5 -62.5t-74.5 -15.5l-161 29q-41 7 -64.5 40.5t-16.5 73.5q8 41 41 63.5t74 15.5z" />
    <glyph glyph-name="iacute" unicode="&#xed;" horiz-adv-x="351" 
d="M158 1q-66 0 -112 47t-46 113v390q0 65 46 111t112 46q68 0 114.5 -45.5t46.5 -111.5v-390q0 -66 -46.5 -113t-114.5 -47zM256 721l-125 -21q-45 -7 -81 18.5t-44 69.5q-7 43 19 78.5t71 43.5l125 21q45 7 80.5 -18t43.5 -69t-17.5 -80t-71.5 -43z" />
    <glyph glyph-name="icircumflex" unicode="&#xee;" horiz-adv-x="351" 
d="M158 1q-66 0 -112 47t-46 113v390q0 65 46 111t112 46q68 0 114.5 -45.5t46.5 -111.5v-390q0 -66 -46.5 -113t-114.5 -47zM80 912q28 22 67 22t66 -22l102 -83q45 -37 32.5 -84.5t-55.5 -59.5t-87 20l-88 80q-2 3 -5 0v-3l39 -56l-70 -38q-37 -19 -66.5 -7.5t-48 35
t-14.5 57.5t34 60z" />
    <glyph glyph-name="idieresis" unicode="&#xef;" horiz-adv-x="351" 
d="M46 886q42 0 73.5 -30.5t31.5 -71.5q0 -43 -31 -72.5t-74 -29.5q-44 0 -74.5 29t-30.5 73q0 41 31 71.5t74 30.5zM279 886q42 0 73.5 -30.5t31.5 -71.5q0 -43 -31 -72.5t-74 -29.5q-44 0 -74 29t-30 73q0 41 30.5 71.5t73.5 30.5zM158 1q-66 0 -112 47t-46 113v390
q0 65 46 111t112 46q68 0 114.5 -45.5t46.5 -111.5v-390q0 -66 -46.5 -113t-114.5 -47z" />
    <glyph glyph-name="eth" unicode="&#xf0;" horiz-adv-x="669" 
d="M303 -2h-141q-64 0 -111 51.5t-47 106.5q0 84 62 126q63 -44 143 -39q3 0 4.5 2.5t0 5.5t-4.5 4q-95 12 -153.5 69t-56.5 156q0 54 25.5 105t80.5 87.5t126 36.5h67q75 0 137.5 -24.5t103 -65.5t68.5 -94.5t34.5 -112.5t0.5 -117.5t-34 -112t-68 -94.5t-101.5 -65.5
t-135.5 -24.5z" />
    <glyph glyph-name="ntilde" unicode="&#xf1;" horiz-adv-x="740" 
d="M710 158q0 -73 -49 -116.5t-113.5 -41.5t-108.5 47q-128 124 -172 170q-3 6 -8 -2q-3 -4 -1 -8l57 -88q-11 -52 -55 -86.5t-100 -34.5q-66 0 -113 46.5t-47 113.5v394q0 65 47 112.5t113 47.5t122 -56l163 -160q2 -3 4.5 -2.5t4 3t0.5 5.5l-59 86q11 52 55 88t99 36
q67 0 114 -47t47 -113v-394zM219 684q-46 11 -62.5 54.5t3.5 81.5q2 6 15 27q22 33 59 50t78 11q26 -3 58 -24t44 -44q0 -3 6 -3q2 0 2 3q4 38 34 56.5t67 8.5q46 -13 61.5 -54.5t-2.5 -79.5q-9 -15 -16 -25q-49 -72 -137 -62q-13 1 -48 20q-14 8 -28 20.5t-21 21.5l-6 8
l-2 1l-2 -1q-5 -38 -35 -58.5t-68 -11.5z" />
    <glyph glyph-name="ograve" unicode="&#xf2;" 
d="M360 720q151 0 258 -107t107 -257t-107 -256t-258 -106q-149 0 -256 106t-107 256t107 257t256 107zM360 394q-14 0 -25 -10.5t-11 -27.5q0 -16 11 -27.5t25 -11.5q16 0 27.5 11.5t11.5 27.5q0 17 -11.5 27.5t-27.5 10.5zM307 930l161 -29q42 -7 65.5 -40.5t16.5 -74.5
q-8 -40 -41.5 -62.5t-74.5 -15.5l-161 29q-41 7 -64.5 40.5t-16.5 73.5q8 41 41 63.5t74 15.5z" />
    <glyph glyph-name="oacute" unicode="&#xf3;" 
d="M360 720q151 0 258 -107t107 -257t-107 -256t-258 -106q-149 0 -256 106t-107 256t107 257t256 107zM360 394q-14 0 -25 -10.5t-11 -27.5q0 -16 11 -27.5t25 -11.5q16 0 27.5 11.5t11.5 27.5q0 17 -11.5 27.5t-27.5 10.5zM456 732l-125 -21q-45 -7 -81 18.5t-44 69.5
q-7 43 19 78.5t71 43.5l125 21q45 7 80.5 -18t43.5 -69t-17.5 -80t-71.5 -43z" />
    <glyph glyph-name="ocircumflex" unicode="&#xf4;" 
d="M360 720q151 0 258 -107t107 -257t-107 -256t-258 -106q-149 0 -256 106t-107 256t107 257t256 107zM360 394q-14 0 -25 -10.5t-11 -27.5q0 -16 11 -27.5t25 -11.5q16 0 27.5 11.5t11.5 27.5q0 17 -11.5 27.5t-27.5 10.5zM278 939q28 24 67 24t67 -24l103 -87
q45 -39 32.5 -88t-56 -61.5t-87.5 20.5l-89 83q-2 3 -5 0v-3l39 -58l-70 -39q-28 -13 -55 -11t-44.5 20.5t-26.5 41t-1.5 50.5t31.5 50z" />
    <glyph glyph-name="otilde" unicode="&#xf5;" 
d="M360 720q151 0 258 -107t107 -257t-107 -256t-258 -106q-149 0 -256 106t-107 256t107 257t256 107zM360 394q-14 0 -25 -10.5t-11 -27.5q0 -16 11 -27.5t25 -11.5q16 0 27.5 11.5t11.5 27.5q0 17 -11.5 27.5t-27.5 10.5zM215 708q-43 11 -57.5 50.5t3.5 74.5q3 6 14 25
q20 30 54 45.5t72 10.5q24 -3 53.5 -22t40.5 -41q0 -3 5 -3q2 0 2 3q4 35 31.5 52t61.5 8q42 -12 56.5 -50t-2.5 -73q-4 -9 -14 -23q-45 -67 -126 -57q-12 1 -45 18q-13 8 -25.5 19.5t-18.5 18.5l-6 8l-2 1l-2 -1q-4 -35 -32 -53.5t-63 -10.5z" />
    <glyph glyph-name="odieresis" unicode="&#xf6;" 
d="M360 720q151 0 258 -107t107 -257t-107 -256t-258 -106q-149 0 -256 106t-107 256t107 257t256 107zM360 394q-14 0 -25 -10.5t-11 -27.5q0 -16 11 -27.5t25 -11.5q16 0 27.5 11.5t11.5 27.5q0 17 -11.5 27.5t-27.5 10.5zM215 892q41 0 72 -29.5t31 -69.5
q0 -42 -30.5 -71t-72.5 -29q-43 0 -72.5 28.5t-29.5 71.5q0 40 30 69.5t72 29.5zM496 892q41 0 71.5 -29.5t30.5 -69.5q0 -42 -30.5 -71t-71.5 -29q-44 0 -73.5 28.5t-29.5 71.5q0 40 30 69.5t73 29.5z" />
    <glyph glyph-name="oslash" unicode="&#xf8;" 
d="M360 720q151 0 258 -107t107 -257t-107 -256t-258 -106q-149 0 -256 106t-107 256t107 257t256 107zM360 394q-14 0 -25 -10.5t-11 -27.5q0 -16 11 -27.5t25 -11.5q16 0 27.5 11.5t11.5 27.5q0 17 -11.5 27.5t-27.5 10.5zM178 61q10 36 90.5 312t97.5 334q11 44 51 65.5
t83 8.5q43 -12 65.5 -51t10.5 -83q-29 -105 -89.5 -310t-98.5 -337q-14 -44 -53.5 -65.5t-82.5 -8.5q-44 12 -65.5 51.5t-8.5 83.5z" />
    <glyph glyph-name="ugrave" unicode="&#xf9;" horiz-adv-x="710" 
d="M341 -7q-140 0 -240.5 100.5t-100.5 240.5v215q0 66 47 113.5t114 47.5q66 0 112 -47.5t46 -113.5v-196q0 -9 6.5 -17t15.5 -8t15.5 8t6.5 17v196q0 66 47 113.5t114 47.5q64 0 111 -47.5t47 -113.5v-215q0 -140 -101 -240.5t-240 -100.5zM284 901l161 -29
q42 -7 65.5 -40.5t16.5 -74.5q-8 -40 -41.5 -62.5t-74.5 -15.5l-161 29q-41 7 -64.5 40.5t-16.5 73.5q8 41 41 63.5t74 15.5z" />
    <glyph glyph-name="uacute" unicode="&#xfa;" horiz-adv-x="710" 
d="M341 -7q-140 0 -240.5 100.5t-100.5 240.5v215q0 66 47 113.5t114 47.5q66 0 112 -47.5t46 -113.5v-196q0 -9 6.5 -17t15.5 -8t15.5 8t6.5 17v196q0 66 47 113.5t114 47.5q64 0 111 -47.5t47 -113.5v-215q0 -140 -101 -240.5t-240 -100.5zM442 693l-125 -21
q-45 -7 -81 18.5t-44 69.5q-7 43 19 78.5t71 43.5l125 21q45 7 80.5 -18t43.5 -69t-17.5 -80t-71.5 -43z" />
    <glyph glyph-name="ucircumflex" unicode="&#xfb;" horiz-adv-x="710" 
d="M341 -7q-140 0 -240.5 100.5t-100.5 240.5v215q0 66 47 113.5t114 47.5q66 0 112 -47.5t46 -113.5v-196q0 -9 6.5 -17t15.5 -8t15.5 8t6.5 17v196q0 66 47 113.5t114 47.5q64 0 111 -47.5t47 -113.5v-215q0 -140 -101 -240.5t-240 -100.5zM265 935q29 24 70 24t69 -24
l107 -87q28 -23 34.5 -52.5t-7 -52t-35.5 -38t-52 -13t-55 25.5l-93 84q-2 3 -5 0v-3l41 -59l-73 -39q-29 -13 -57 -10.5t-46.5 20.5t-28 41t-1.5 51t33 50z" />
    <glyph glyph-name="udieresis" unicode="&#xfc;" horiz-adv-x="710" 
d="M341 -7q-140 0 -240.5 100.5t-100.5 240.5v215q0 66 47 113.5t114 47.5q66 0 112 -47.5t46 -113.5v-196q0 -9 6.5 -17t15.5 -8t15.5 8t6.5 17v196q0 66 47 113.5t114 47.5q64 0 111 -47.5t47 -113.5v-215q0 -140 -101 -240.5t-240 -100.5zM188 909q44 0 77.5 -32.5
t33.5 -75.5q0 -46 -33 -77t-78 -31q-47 0 -79 31t-32 77q0 44 32.5 76t78.5 32zM492 909q44 0 77.5 -32.5t33.5 -75.5q0 -46 -33 -77t-78 -31q-47 0 -79 31t-32 77q0 44 32.5 76t78.5 32z" />
    <glyph glyph-name="yacute" unicode="&#xfd;" horiz-adv-x="699" 
d="M413 666l-77 -80l-79 80q-45 47 -108.5 47t-108.5 -47q-45 -46 -45 -112t45 -113l137 -140v-140q0 -66 47 -112.5t112 -46.5q66 0 113 46.5t47 112.5v140l137 140q45 47 45 113t-45 112q-45 47 -109.5 47t-110.5 -47zM430 693l-125 -21q-45 -7 -81 18.5t-44 69.5
q-7 43 19 78.5t71 43.5l125 21q45 7 80.5 -18t43.5 -69t-17.5 -80t-71.5 -43z" />
    <glyph glyph-name="thorn" unicode="&#xfe;" horiz-adv-x="617" 
d="M293 125v-134q0 -60 -43.5 -102.5t-103.5 -42.5t-103 42.5t-43 102.5v588q0 61 43.5 104.5t102.5 43.5q60 0 103.5 -43.5t43.5 -104.5v-133q0 -2 4.5 -3t4.5 3l22 131q110 -10 187 -94t77 -198q0 -113 -76.5 -196.5t-187.5 -95.5l-22 132q0 4 -4.5 4t-4.5 -4z" />
    <glyph glyph-name="ydieresis" unicode="&#xff;" horiz-adv-x="699" 
d="M413 666l-77 -80l-79 80q-45 47 -108.5 47t-108.5 -47q-45 -46 -45 -112t45 -113l137 -140v-140q0 -66 47 -112.5t112 -46.5q66 0 113 46.5t47 112.5v140l137 140q45 47 45 113t-45 112q-45 47 -109.5 47t-110.5 -47zM197 926q44 0 77.5 -32.5t33.5 -75.5q0 -46 -33 -77
t-78 -31q-47 0 -79 31t-32 77q0 44 32.5 76t78.5 32zM501 926q44 0 77.5 -32.5t33.5 -75.5q0 -46 -33 -77t-78 -31q-47 0 -79 31t-32 77q0 44 32.5 76t78.5 32z" />
    <glyph glyph-name="dotlessi" unicode="&#x131;" horiz-adv-x="325" 
d="M291 562v-441q0 -35 -16 -62t-41.5 -40.5t-56 -20t-61 0.5t-56 21t-41.5 40.5t-16 60.5v441q0 92 74.5 130t146.5 0t67 -130z" />
    <glyph glyph-name="Lslash" unicode="&#x141;" horiz-adv-x="698" 
d="M302 708q67 0 127 -41l-52 -48q-2 -2 2 -6q1 -1 2 0q13 7 34 19.5t30 17.5q36 20 75.5 10t59.5 -45t10 -74t-45 -59l-33 -19v-108l-114 -14q-4 0 -4 -3t4 -3h106q68 0 116.5 -49t48.5 -119q0 -68 -48.5 -117t-116.5 -49h-202q-84 0 -144 58t-65 141l56 46q5 2 0 6
q-2 1 -4 0l-4 -2q-34 -21 -73.5 -11t-59.5 46t-9.5 74.5t44.5 58.5l50 29v52q0 87 61 148t148 61z" />
    <glyph glyph-name="lslash" unicode="&#x142;" horiz-adv-x="548" 
d="M101 451v106q0 57 41 98t98 41q80 0 121 -69l-58 -54q-4 -1 -1.5 -3.5t5.5 -0.5l45 25q34 20 73.5 10t59.5 -45t9.5 -74t-44.5 -59q-12 -8 -22.5 -13.5t-24 -13t-24.5 -14.5v-106q58 0 98.5 -40.5t40.5 -98.5t-40.5 -98.5t-98.5 -40.5h-52q-93 8 -151.5 58.5t-71.5 140.5
l60 52q2 3 0.5 5t-4.5 1q-8 -3 -15 -8q-34 -20 -73.5 -9.5t-59.5 46.5q-20 35 -9.5 74t45.5 59q7 4 23 13.5t30 17.5z" />
    <glyph glyph-name="OE" unicode="&#x152;" horiz-adv-x="1217" 
d="M360 720q151 0 258 -107t107 -257t-107 -256t-258 -106q-149 0 -256 106t-107 256t107 257t256 107zM360 394q-14 0 -25 -10.5t-11 -27.5q0 -16 11 -27.5t25 -11.5q16 0 27.5 11.5t11.5 27.5q0 17 -11.5 27.5t-27.5 10.5zM613 550q0 68 45.5 114.5t115.5 46.5h261
q46 0 82.5 -24.5t55 -60t18 -79.5t-24.5 -81q-42 -69 -139 -72q-5 0 -5 -5.5t5 -7.5q93 -12 149 47q21 -44 13.5 -95.5t-40.5 -84.5q-37 -41 -112 -50q-5 0 -5 -6t5 -6q92 -9 141 49q15 -25 15 -77q0 -56 -41 -107t-117 -51h-263q-66 0 -112.5 46.5t-46.5 111.5v392z" />
    <glyph glyph-name="oe" unicode="&#x153;" horiz-adv-x="1216" 
d="M360 720q151 0 258 -107t107 -257t-107 -256t-258 -106q-149 0 -256 106t-107 256t107 257t256 107zM360 394q-14 0 -25 -10.5t-11 -27.5q0 -16 11 -27.5t25 -11.5q16 0 27.5 11.5t11.5 27.5q0 17 -11.5 27.5t-27.5 10.5zM613 550q0 68 45.5 114.5t115.5 46.5h261
q46 0 82.5 -24.5t55 -60t18 -79.5t-24.5 -81q-42 -69 -139 -72q-5 0 -5 -5.5t5 -7.5q93 -12 149 47q21 -44 13.5 -95.5t-40.5 -84.5q-37 -41 -112 -50q-5 0 -5 -6t5 -6q92 -9 141 49q15 -25 15 -77q0 -56 -41 -107t-117 -51h-263q-66 0 -112.5 46.5t-46.5 111.5v392z" />
    <glyph glyph-name="Scaron" unicode="&#x160;" horiz-adv-x="665" 
d="M412 734q-28 -24 -70 -24t-70 24l-107 88q-47 38 -34 88t58 62.5t91 -20.5l94 -84q1 -2 3 -0.5t1 3.5l-41 59l73 40q29 13 57 10.5t47 -21t28 -41.5t1 -51t-33 -50zM635 553q0 66 -47.5 112t-114.5 46h-217q-69 1 -123.5 -23.5t-84.5 -63t-42.5 -87t-3.5 -95.5
t38.5 -89.5t77.5 -67.5q47 -23 83 -26q6 -2 5 -7.5t-7 -5.5q-80 0 -138 39q-63 -46 -63 -126q0 -56 49 -108t110 -52h219q76 0 133.5 29.5t86.5 74.5t35 99.5t-11.5 104.5t-62 90t-108.5 55q-6 2 -4.5 7.5t7.5 5.5q65 -5 112 -32q71 36 71 120z" />
    <glyph glyph-name="scaron" unicode="&#x161;" horiz-adv-x="665" 
d="M412 734q-28 -24 -70 -24t-70 24l-107 88q-47 38 -34 88t58 62.5t91 -20.5l94 -84q1 -2 3 -0.5t1 3.5l-41 59l73 40q29 13 57 10.5t47 -21t28 -41.5t1 -51t-33 -50zM635 553q0 66 -47.5 112t-114.5 46h-217q-69 1 -123.5 -23.5t-84.5 -63t-42.5 -87t-3.5 -95.5
t38.5 -89.5t77.5 -67.5q47 -23 83 -26q6 -2 5 -7.5t-7 -5.5q-80 0 -138 39q-63 -46 -63 -126q0 -56 49 -108t110 -52h219q76 0 133.5 29.5t86.5 74.5t35 99.5t-11.5 104.5t-62 90t-108.5 55q-6 2 -4.5 7.5t7.5 5.5q65 -5 112 -32q71 36 71 120z" />
    <glyph glyph-name="Ydieresis" unicode="&#x178;" horiz-adv-x="699" 
d="M413 666l-77 -80l-79 80q-45 47 -108.5 47t-108.5 -47q-45 -46 -45 -112t45 -113l137 -140v-140q0 -66 47 -112.5t112 -46.5q66 0 113 46.5t47 112.5v140l137 140q45 47 45 113t-45 112q-45 47 -109.5 47t-110.5 -47zM197 926q44 0 77.5 -32.5t33.5 -75.5q0 -46 -33 -77
t-78 -31q-47 0 -79 31t-32 77q0 44 32.5 76t78.5 32zM501 926q44 0 77.5 -32.5t33.5 -75.5q0 -46 -33 -77t-78 -31q-47 0 -79 31t-32 77q0 44 32.5 76t78.5 32z" />
    <glyph glyph-name="Zcaron" unicode="&#x17d;" horiz-adv-x="675" 
d="M484 711q74 0 118 -49t42 -114.5t-48 -111.5l-170 -170q-1 -2 0 -5.5t3 -4.5t5 2l88 58q56 -13 90 -54.5t34 -102.5t-47.5 -110t-111.5 -49h-332q-66 0 -114 46.5t-48 112.5q0 69 57 121l159 162q4 4 0.5 8.5t-8.5 2.5l-82 -58q-54 13 -89 56.5t-35 100.5q0 65 47 112
t113 47h329zM398 733q-28 -24 -69.5 -24t-70.5 24l-107 88q-47 38 -34 88t58 62.5t91 -20.5l94 -84q1 -2 3 -0.5t1 3.5l-41 59l73 40q29 13 57 10.5t47 -21t28 -41.5t1 -51t-33 -50z" />
    <glyph glyph-name="zcaron" unicode="&#x17e;" horiz-adv-x="675" 
d="M484 711q74 0 118 -49t42 -114.5t-48 -111.5l-170 -170q-1 -2 0 -5.5t3 -4.5t5 2l88 58q56 -13 90 -54.5t34 -102.5t-47.5 -110t-111.5 -49h-332q-66 0 -114 46.5t-48 112.5q0 69 57 121l159 162q4 4 0.5 8.5t-8.5 2.5l-82 -58q-54 13 -89 56.5t-35 100.5q0 65 47 112
t113 47h329zM398 734q-28 -24 -69.5 -24t-70.5 24l-107 88q-47 38 -34 88t58 62.5t91 -20.5l94 -84q1 -2 3 -0.5t1 3.5l-41 59l73 40q29 13 57 10.5t47 -21t28 -41.5t1 -51t-33 -50z" />
    <glyph glyph-name="florin" unicode="&#x192;" horiz-adv-x="576" 
d="M400 143h3q0 -106 -66 -183t-169 -79q-66 0 -109.5 34.5t-43.5 97.5q0 82 73 118q47 -9 86 12q6 0 3 4l-3 2q-66 -16 -120 24t-54 111q0 53 33 91.5t85 47.5l3 3q0 111 73.5 194t185.5 85q68 0 115 -37t47 -104q0 -42 -25 -78t-67 -52q-33 9 -70 -6q-4 0 -2 -3l5 -2
q61 6 110 -34t49 -105q0 -57 -41 -98t-101 -43z" />
    <glyph glyph-name="circumflex" unicode="&#x2c6;" horiz-adv-x="514" 
d="M169 688q28 24 69.5 24t69.5 -24l107 -87q28 -23 34.5 -52.5t-7 -52t-35.5 -38t-52 -13t-55 25.5l-93 84q-2 3 -5 0v-3l41 -59l-73 -39q-29 -13 -57 -10.5t-46.5 20.5t-28 41t-1.5 51t33 50z" />
    <glyph glyph-name="caron" unicode="&#x2c7;" horiz-adv-x="494" 
d="M301 469q-29 -24 -70 -24t-70 24l-107 88q-47 38 -34 88t58 62.5t91 -20.5l94 -84q1 -2 3 -0.5t1 3.5l-41 59l73 40q29 13 57 10.5t47 -21t28 -41.5t1 -51t-33 -50z" />
    <glyph glyph-name="breve" unicode="&#x2d8;" horiz-adv-x="535" 
d="M443 555q-31 -52 -76.5 -72t-109.5 -23q-65 -4 -122.5 23.5t-85.5 81.5q-30 54 6 100.5t91 40.5q26 -2 49.5 -20.5t51.5 -18.5q27 0 50.5 15t35.5 18q39 9 75 -10.5t47 -55t-12 -79.5z" />
    <glyph glyph-name="dotaccent" unicode="&#x2d9;" horiz-adv-x="286" 
d="M29 614q0 44 32 76.5t77 32.5q44 0 77 -32.5t33 -76.5t-33 -77t-77 -33q-45 0 -77 32.5t-32 77.5z" />
    <glyph glyph-name="ring" unicode="&#x2da;" horiz-adv-x="361" 
d="M261 526h2q-38 -39 -94 -39q-57 0 -95 39h2q-39 38 -39 94q0 58 39 94v-1q37 37 93 37t94 -37q37 -38 37 -93q0 -56 -39 -94z" />
    <glyph glyph-name="ogonek" unicode="&#x2db;" horiz-adv-x="320" 
d="M221 -54q-13 -31 -26 -71q0 -1 1.5 -2t2.5 1l24 31q23 -26 26 -64q3 -47 -27.5 -81.5t-75.5 -37.5q-71 -5 -106 54.5t-7 131.5l33 94q12 31 42.5 45.5t62.5 4.5q32 -13 46 -43.5t4 -62.5z" />
    <glyph glyph-name="tilde" unicode="&#x2dc;" horiz-adv-x="510" 
d="M101 499q-43 11 -57.5 50.5t3.5 74.5q3 6 14 25q20 30 54 45.5t72 10.5q24 -3 53.5 -22t40.5 -41q0 -3 5 -3q2 0 2 3q4 35 31.5 52t61.5 8q42 -12 56.5 -50t-2.5 -73q-4 -9 -14 -23q-45 -67 -126 -57q-12 1 -45 18q-13 8 -25.5 19.5t-18.5 19.5l-6 7l-2 1l-2 -1
q-4 -35 -32 -53.5t-63 -10.5z" />
    <glyph glyph-name="hungarumlaut" unicode="&#x2dd;" horiz-adv-x="473" 
d="M30 528v119q0 38 28 66t68 28q33 0 58.5 -20t33.5 -50q2 -2 5 -2t3 2q8 30 34.5 50t59.5 20q38 0 66 -28t28 -66v-119q0 -40 -28 -68.5t-66 -28.5q-33 0 -59.5 19.5t-34.5 49.5q0 2 -1.5 3t-3.5 0t-3 -3q-8 -30 -33.5 -49.5t-58.5 -19.5q-40 0 -68 28.5t-28 68.5z" />
    <glyph glyph-name="endash" unicode="&#x2013;" horiz-adv-x="666" 
d="M140 419h345q46 0 77.5 -31t31.5 -76q0 -44 -31.5 -75t-77.5 -31h-345q-46 0 -77 31t-31 75q0 45 31 76t77 31z" />
    <glyph glyph-name="emdash" unicode="&#x2014;" horiz-adv-x="955" 
d="M150 417h604q46 0 77.5 -31t31.5 -76q0 -44 -31.5 -75t-77.5 -31h-604q-46 0 -77 31t-31 75q0 45 31 76t77 31z" />
    <glyph glyph-name="quoteleft" unicode="&#x2018;" horiz-adv-x="310" 
d="M226 597q-17 -35 -30 -69q0 -5 4 -1l26 29q21 -29 21 -66q0 -47 -32.5 -79.5t-77.5 -32.5q-72 0 -103 62.5t2 131.5l39 91q14 31 45.5 43t63.5 0q30 -15 42.5 -46t-0.5 -63z" />
    <glyph glyph-name="quoteright" unicode="&#x2019;" horiz-adv-x="310" 
d="M48 493q17 35 30 69q0 5 -4 1l-26 -29q-21 29 -21 66q0 47 32.5 79.5t77.5 32.5q72 0 103 -62.5t-2 -131.5l-39 -91q-14 -31 -45.5 -43t-63.5 0q-30 15 -42.5 46t0.5 63z" />
    <glyph glyph-name="quotesinglbase" unicode="&#x201a;" horiz-adv-x="286" 
d="M27 92v119q0 39 28.5 67t69.5 28q38 0 66 -28t28 -67v-119q0 -40 -27.5 -68t-66.5 -28q-41 0 -69.5 28t-28.5 68z" />
    <glyph glyph-name="quotedblleft" unicode="&#x201c;" horiz-adv-x="569" 
d="M226 597q-17 -35 -30 -69q0 -5 4 -1l26 29q21 -29 21 -66q0 -47 -32.5 -79.5t-77.5 -32.5q-72 0 -103 62.5t2 131.5l39 91q14 31 45.5 43t63.5 0q30 -15 42.5 -46t-0.5 -63zM489 597q-17 -35 -30 -69q0 -5 4 -1l26 29q21 -29 21 -66q0 -47 -32.5 -79.5t-77.5 -32.5
q-72 0 -103 62.5t2 131.5l39 91q14 31 45.5 43t63.5 0q30 -15 42.5 -46t-0.5 -63z" />
    <glyph glyph-name="quotedblright" unicode="&#x201d;" horiz-adv-x="565" 
d="M48 493q17 35 30 69q0 5 -4 1l-26 -29q-21 29 -21 66q0 47 32.5 79.5t77.5 32.5q72 0 103 -62.5t-2 -131.5l-39 -91q-14 -31 -45.5 -43t-63.5 0q-30 15 -42.5 46t0.5 63zM306 493q17 35 30 69q0 5 -4 1l-26 -29q-21 29 -21 66q0 47 32.5 79.5t77.5 32.5q72 0 103 -62.5
t-2 -131.5l-39 -91q-14 -31 -45.5 -43t-63.5 0q-30 15 -42.5 46t0.5 63z" />
    <glyph glyph-name="quotedblbase" unicode="&#x201e;" horiz-adv-x="477" 
d="M31 89v119q0 38 28 66t68 28q33 0 58.5 -20t33.5 -50q2 -2 5 -2t3 2q8 30 34.5 50t59.5 20q38 0 66 -28t28 -66v-119q0 -40 -28 -68.5t-66 -28.5q-33 0 -59.5 19.5t-34.5 49.5q0 2 -1.5 3t-3.5 0t-3 -3q-8 -30 -33.5 -49.5t-58.5 -19.5q-40 0 -68 28.5t-28 68.5z" />
    <glyph glyph-name="dagger" unicode="&#x2020;" horiz-adv-x="559" 
d="M109 552h100q2 0 2 3.5t-2 5.5l-62 12v23q0 47 33.5 81t81.5 34t81.5 -34.5t33.5 -83.5v-41h38q47 0 81 -34t34 -81q0 -48 -34 -81.5t-81 -33.5h-38v-206q0 -48 -34 -81t-81 -33q-48 0 -81.5 33t-33.5 81v206h-38q-49 0 -82 33.5t-33 81.5t34 81.5t81 33.5z" />
    <glyph glyph-name="daggerdbl" unicode="&#x2021;" horiz-adv-x="555" 
d="M119 581h93q2 0 3 2q2 3 -3 3l-58 15q0 46 32 78t78 32t78.5 -32t32.5 -78v-20h35q46 0 78 -32.5t32 -78.5t-32 -78t-78 -32h-35v-18h35q46 -2 78 -34.5t32 -78.5q0 -45 -32 -76t-78 -31h-96q-2 0 -2 -3.5t2 -5.5l61 -12q-2 -46 -34.5 -78t-78.5 -32q-47 0 -78.5 32
t-29.5 78v21h-38q-46 0 -77.5 32t-29.5 78q0 46 32 78t78 32h35v18h-38q-46 0 -78 32t-32 78q2 46 35 78.5t78 32.5z" />
    <glyph glyph-name="bullet" unicode="&#x2022;" horiz-adv-x="372" 
d="M24 329q0 57 40 98.5t100 41.5q56 0 98 -42t42 -98q0 -60 -41.5 -100t-98.5 -40q-62 0 -101 39.5t-39 100.5z" />
    <glyph glyph-name="ellipsis" unicode="&#x2026;" horiz-adv-x="824" 
d="M147 215q44 0 77.5 -32.5t33.5 -75.5q0 -46 -33 -77t-78 -31q-47 0 -79 31t-32 77q0 44 32.5 76t78.5 32zM399 215q44 0 77.5 -32.5t33.5 -75.5q0 -46 -33 -77t-78 -31q-47 0 -79 31t-32 77q0 44 32.5 76t78.5 32zM654 215q44 0 77.5 -32.5t33.5 -75.5q0 -46 -33 -77
t-78 -31q-47 0 -79 31t-32 77q0 44 32.5 76t78.5 32z" />
    <glyph glyph-name="perthousand" unicode="&#x2030;" horiz-adv-x="919" 
d="M43 225l99 124h2q69 0 114 48q2 5 -3 7q-2 0 -3 -1q-42 -34 -95 -34q-64 0 -109.5 45.5t-45.5 110.5q0 63 45.5 107t109.5 44q54 0 96 -34.5t53 -87.5l52 65q40 52 95.5 61.5t105.5 -32.5q42 -36 45 -92t-32 -100l-96 -121h-7q-81 0 -127 -64q-1 -4 2 -5q2 -1 3 2
q49 44 111 44q84 0 129 -73q21 36 57.5 57t79.5 21q66 0 113 -47t47 -113t-47 -113t-113 -47q-44 0 -80.5 21t-57.5 57q-20 -32 -54 -51t-74 -19q-55 0 -97.5 33.5t-54.5 85.5q-7 -10 -59 -75q-35 -43 -92 -46.5t-99 34.5q-40 36 -44 90.5t31 97.5z" />
    <glyph glyph-name="guilsinglleft" unicode="&#x2039;" horiz-adv-x="368" 
d="M28 395l140 140q28 28 67 28t66 -28q29 -28 29 -67t-29 -66l-61 -60l-40 23q-3 2 -4.5 0t0.5 -5q36 -34 105 -105q29 -27 29 -66t-29 -67q-27 -27 -66 -27t-67 27l-140 139q-27 28 -27 67.5t27 66.5z" />
    <glyph glyph-name="guilsinglright" unicode="&#x203a;" horiz-adv-x="367" 
d="M314 395q27 -27 27 -66.5t-27 -67.5l-140 -139q-28 -27 -67 -27t-66 27q-29 28 -29 67t29 66q69 71 105 105q2 3 0.5 5t-4.5 0l-40 -23l-61 60q-29 27 -29 66t29 67q27 28 66 28t67 -28z" />
    <glyph glyph-name="fraction" unicode="&#x2044;" horiz-adv-x="709" 
d="M185 -17q-29 -36 -74.5 -39.5t-79.5 26.5q-35 28 -38.5 73.5t25.5 80.5q423 499 475 558q29 34 74 37t79 -26q35 -29 39 -74t-26 -79q-15 -17 -223.5 -262t-250.5 -295z" />
    <glyph glyph-name="Euro" unicode="&#x20ac;" horiz-adv-x="715" 
d="M506 4h-67q-109 0 -197.5 60.5t-128.5 157.5l91 19q5 0 4 4q-2 2 -4 3h-101q-46 0 -77.5 32.5t-31.5 78.5q0 45 32 76.5t77 31.5h101q5 0 4 4q-2 2 -4 3l-91 20q40 97 128.5 157.5t197.5 60.5h67q74 0 125 -51t51 -125q0 -64 -39 -113t-100 -62q-8 0 -4 -5l4 -2
q61 -13 100 -61.5t39 -112.5q0 -74 -51 -125t-125 -51z" />
    <glyph glyph-name="trademark" unicode="&#x2122;" horiz-adv-x="899" 
d="M84 511q26 0 38 2q3 3 0 5q-48 -2 -82.5 22.5t-34.5 72.5q0 40 28 68t68 28h191q40 0 68 -28t28 -68q0 -47 -34.5 -72t-80.5 -23l-3 -3q12 -4 36 -4v-75q0 -47 -32.5 -80.5t-79.5 -33.5q-46 0 -78 34.5t-32 79.5v75zM416 611v-191q0 -40 29.5 -69t68.5 -27q84 0 91 77
q-26 5 -45 28v3h2q27 -26 63.5 -26t63.5 26h2v-3q-19 -22 -43 -28q2 -40 27.5 -58.5t61.5 -18.5q41 -1 70.5 27.5t29.5 68.5v191q0 39 -27.5 67.5t-65.5 30.5q-38 0 -67 -29l-50 -50l-53 50q-24 29 -64 29q-39 -2 -66.5 -30.5t-27.5 -67.5z" />
    <glyph glyph-name="fi" unicode="&#xfb01;" horiz-adv-x="753" 
d="M438 142h-154v-5v-2q0 -5 -2 -5q-3 -58 -40 -94t-97 -36q-59 0 -101.5 41.5t-42.5 100.5v284q0 73 32.5 136.5t93 103.5t135.5 41q69 0 115.5 -37.5t46.5 -104.5v-4v-3v-4v-3v-4v-2q0 -3 -2 -5v-2v-5q0 -2 -2 -2v-5v-2q-3 -2 -3 -5v-2q-2 -2 -2 -5v-2l-2 -2q0 -2 -3 -5
v-2q-28 -52 -93 -69q-8 -2 -5 -5q2 -1 5 -1h263q61 0 100 -44.5t39 -106.5v-133q0 -59 -40.5 -100.5t-98.5 -41.5t-100 42t-42 100zM582 707q-53 0 -90.5 -37.5t-37.5 -90.5q0 -54 37.5 -92.5t90.5 -38.5t90.5 38.5t37.5 92.5q0 53 -37.5 90.5t-90.5 37.5z" />
    <glyph glyph-name="fl" unicode="&#xfb02;" horiz-adv-x="899" 
d="M727 568v-283q59 0 100.5 -42t41.5 -100t-41.5 -100t-100.5 -42h-52q-106 0 -168.5 68.5t-62.5 185.5v177h-128q-3 0 -5 -2t-1 -4t4 -3q48 -11 78.5 -49t30.5 -89q0 -59 -41 -100.5t-99 -41.5v-2v-5v-5q-5 -57 -42.5 -93t-97.5 -37q-59 0 -101.5 41.5t-42.5 100.5v285
q0 115 74 198.5t187 83.5h331q56 0 96 -43t40 -99z" />
    </font>
</defs>
</svg>
